<svg version="1.1" viewBox="0.0 0.0 500.0 500.0" fill="none" stroke="none" stroke-linecap="square" stroke-miterlimit="10" xmlns:xlink="http://www.w3.org/1999/xlink" xmlns="http://www.w3.org/2000/svg"><clipPath id="p.0"><path d="m0 0l500.0 0l0 500.0l-500.0 0l0 -500.0z" clip-rule="nonzero"/></clipPath><g clip-path="url(#p.0)"><path fill="#000000" fill-opacity="0.0" d="m0 0l500.0 0l0 500.0l-500.0 0z" fill-rule="evenodd"/><path fill="#000000" fill-opacity="0.0" d="m375.4308 249.99998l0 0c0 -24.59172 -19.935516 -44.527252 -44.527252 -44.527252l0 0c-11.809357 0 -23.13504 4.6912537 -31.485535 13.041733c-8.350464 8.350479 -13.041718 19.676163 -13.041718 31.48552l0 0c0 24.59172 19.935516 44.527267 44.527252 44.527267l0 0c24.591736 0 44.527252 -19.935547 44.527252 -44.527267z" fill-rule="evenodd"/><path stroke="#000000" stroke-width="16.0" stroke-linejoin="round" stroke-linecap="butt" d="m375.4308 249.99998l0 0c0 -24.59172 -19.935516 -44.527252 -44.527252 -44.527252l0 0c-11.809357 0 -23.13504 4.6912537 -31.485535 13.041733c-8.350464 8.350479 -13.041718 19.676163 -13.041718 31.48552l0 0c0 24.59172 19.935516 44.527267 44.527252 44.527267l0 0c24.591736 0 44.527252 -19.935547 44.527252 -44.527267z" fill-rule="evenodd"/><path fill="#000000" fill-opacity="0.0" d="m286.37607 249.6452l0 0c0 -0.097732544 -0.07922363 -0.17697144 -0.17697144 -0.17697144l-219.62769 0c-0.046943665 0 -0.09195709 0.01864624 -0.12514496 0.051834106c-0.033195496 0.033187866 -0.051834106 0.078201294 -0.051834106 0.12513733l0 0.707901c0 0.0977478 0.07923126 0.1769867 0.17697906 0.1769867l219.62769 0c0.0977478 0 0.17697144 -0.07923889 0.17697144 -0.1769867z" fill-rule="evenodd"/><path stroke="#000000" stroke-width="16.0" stroke-linejoin="round" stroke-linecap="butt" d="m286.37607 249.6452l0 0c0 -0.097732544 -0.07922363 -0.17697144 -0.17697144 -0.17697144l-219.62769 0c-0.046943665 0 -0.09195709 0.01864624 -0.12514496 0.051834106c-0.033195496 0.033187866 -0.051834106 0.078201294 -0.051834106 0.12513733l0 0.707901c0 0.0977478 0.07923126 0.1769867 0.17697906 0.1769867l219.62769 0c0.0977478 0 0.17697144 -0.07923889 0.17697144 -0.1769867z" fill-rule="evenodd"/><path fill="#000000" fill-opacity="0.0" d="m433.7266 249.6452l0 0c0 -0.097732544 -0.07922363 -0.17697144 -0.17697144 -0.17697144l-57.942047 0c-0.046966553 0 -0.09197998 0.01864624 -0.12515259 0.051834106c-0.033203125 0.033187866 -0.051849365 0.078201294 -0.051849365 0.12513733l0 0.707901c0 0.0977478 0.07925415 0.1769867 0.17700195 0.1769867l57.942047 0c0.0977478 0 0.17697144 -0.07923889 0.17697144 -0.1769867z" fill-rule="evenodd"/><path stroke="#000000" stroke-width="16.0" stroke-linejoin="round" stroke-linecap="butt" d="m433.7266 249.6452l0 0c0 -0.097732544 -0.07922363 -0.17697144 -0.17697144 -0.17697144l-57.942047 0c-0.046966553 0 -0.09197998 0.01864624 -0.12515259 0.051834106c-0.033203125 0.033187866 -0.051849365 0.078201294 -0.051849365 0.12513733l0 0.707901c0 0.0977478 0.07925415 0.1769867 0.17700195 0.1769867l57.942047 0c0.0977478 0 0.17697144 -0.07923889 0.17697144 -0.1769867z" fill-rule="evenodd"/><path fill="#000000" fill-opacity="0.0" d="m124.56913 406.42087l0 0c0 -24.591736 19.935524 -44.527252 44.52726 -44.527252l0 0c11.809357 0 23.13504 4.6912537 31.48552 13.041718c8.350479 8.350494 13.041733 19.676178 13.041733 31.485535l0 0c0 24.591736 -19.935532 44.527252 -44.527252 44.527252l0 0c-24.591736 0 -44.52726 -19.935516 -44.52726 -44.527252z" fill-rule="evenodd"/><path stroke="#000000" stroke-width="16.0" stroke-linejoin="round" stroke-linecap="butt" d="m124.56913 406.42087l0 0c0 -24.591736 19.935524 -44.527252 44.52726 -44.527252l0 0c11.809357 0 23.13504 4.6912537 31.48552 13.041718c8.350479 8.350494 13.041733 19.676178 13.041733 31.485535l0 0c0 24.591736 -19.935532 44.527252 -44.527252 44.527252l0 0c-24.591736 0 -44.52726 -19.935516 -44.52726 -44.527252z" fill-rule="evenodd"/><path fill="#000000" fill-opacity="0.0" d="m213.62386 406.06607l0 0c0 -0.097717285 0.07923889 -0.17697144 0.1769867 -0.17697144l219.62769 0c0.046936035 0 0.09194946 0.01864624 0.12512207 0.051849365c0.033203125 0.033172607 0.051849365 0.078186035 0.051849365 0.12512207l0 0.70791626c0 0.0977478 -0.07925415 0.17697144 -0.17697144 0.17697144l-219.62769 0c-0.0977478 0 -0.1769867 -0.07922363 -0.1769867 -0.17697144z" fill-rule="evenodd"/><path stroke="#000000" stroke-width="16.0" stroke-linejoin="round" stroke-linecap="butt" d="m213.62386 406.06607l0 0c0 -0.097717285 0.07923889 -0.17697144 0.1769867 -0.17697144l219.62769 0c0.046936035 0 0.09194946 0.01864624 0.12512207 0.051849365c0.033203125 0.033172607 0.051849365 0.078186035 0.051849365 0.12512207l0 0.70791626c0 0.0977478 -0.07925415 0.17697144 -0.17697144 0.17697144l-219.62769 0c-0.0977478 0 -0.1769867 -0.07922363 -0.1769867 -0.17697144z" fill-rule="evenodd"/><path fill="#000000" fill-opacity="0.0" d="m66.27332 406.06607l0 0c0 -0.097717285 0.07923889 -0.17697144 0.17697906 -0.17697144l57.942062 0c0.046936035 0 0.09194946 0.01864624 0.12514496 0.051849365c0.033187866 0.033172607 0.051834106 0.078186035 0.051834106 0.12512207l0 0.70791626c0 0.0977478 -0.07923889 0.17697144 -0.17697906 0.17697144l-57.942062 0c-0.09774017 0 -0.17697906 -0.07922363 -0.17697906 -0.17697144z" fill-rule="evenodd"/><path stroke="#000000" stroke-width="16.0" stroke-linejoin="round" stroke-linecap="butt" d="m66.27332 406.06607l0 0c0 -0.097717285 0.07923889 -0.17697144 0.17697906 -0.17697144l57.942062 0c0.046936035 0 0.09194946 0.01864624 0.12514496 0.051849365c0.033187866 0.033172607 0.051834106 0.078186035 0.051834106 0.12512207l0 0.70791626c0 0.0977478 -0.07923889 0.17697144 -0.17697906 0.17697144l-57.942062 0c-0.09774017 0 -0.17697906 -0.07922363 -0.17697906 -0.17697144z" fill-rule="evenodd"/><path fill="#000000" fill-opacity="0.0" d="m124.56913 93.57911l0 0c0 -24.59172 19.935524 -44.527256 44.52726 -44.527256l0 0c11.809357 0 23.13504 4.6912537 31.48552 13.041733c8.350479 8.350483 13.041733 19.676159 13.041733 31.485523l0 0c0 24.591728 -19.935532 44.52726 -44.527252 44.52726l0 0c-24.591736 0 -44.52726 -19.935532 -44.52726 -44.52726z" fill-rule="evenodd"/><path stroke="#000000" stroke-width="16.0" stroke-linejoin="round" stroke-linecap="butt" d="m124.56913 93.57911l0 0c0 -24.59172 19.935524 -44.527256 44.52726 -44.527256l0 0c11.809357 0 23.13504 4.6912537 31.48552 13.041733c8.350479 8.350483 13.041733 19.676159 13.041733 31.485523l0 0c0 24.591728 -19.935532 44.52726 -44.527252 44.52726l0 0c-24.591736 0 -44.52726 -19.935532 -44.52726 -44.52726z" fill-rule="evenodd"/><path fill="#000000" fill-opacity="0.0" d="m213.62386 93.22433l0 0c0 -0.09774017 0.07923889 -0.17697906 0.1769867 -0.17697906l219.62769 0c0.046936035 0 0.09194946 0.01864624 0.12512207 0.051841736c0.033203125 0.033187866 0.051849365 0.078201294 0.051849365 0.12513733l0 0.707901c0 0.0977478 -0.07925415 0.17697906 -0.17697144 0.17697906l-219.62769 0c-0.0977478 0 -0.1769867 -0.07923126 -0.1769867 -0.17697906z" fill-rule="evenodd"/><path stroke="#000000" stroke-width="16.0" stroke-linejoin="round" stroke-linecap="butt" d="m213.62386 93.22433l0 0c0 -0.09774017 0.07923889 -0.17697906 0.1769867 -0.17697906l219.62769 0c0.046936035 0 0.09194946 0.01864624 0.12512207 0.051841736c0.033203125 0.033187866 0.051849365 0.078201294 0.051849365 0.12513733l0 0.707901c0 0.0977478 -0.07925415 0.17697906 -0.17697144 0.17697906l-219.62769 0c-0.0977478 0 -0.1769867 -0.07923126 -0.1769867 -0.17697906z" fill-rule="evenodd"/><path fill="#000000" fill-opacity="0.0" d="m66.27332 93.22433l0 0c0 -0.09774017 0.07923889 -0.17697906 0.17697906 -0.17697906l57.942062 0c0.046936035 0 0.09194946 0.01864624 0.12514496 0.051841736c0.033187866 0.033187866 0.051834106 0.078201294 0.051834106 0.12513733l0 0.707901c0 0.0977478 -0.07923889 0.17697906 -0.17697906 0.17697906l-57.942062 0c-0.09774017 0 -0.17697906 -0.07923126 -0.17697906 -0.17697906z" fill-rule="evenodd"/><path stroke="#000000" stroke-width="16.0" stroke-linejoin="round" stroke-linecap="butt" d="m66.27332 93.22433l0 0c0 -0.09774017 0.07923889 -0.17697906 0.17697906 -0.17697906l57.942062 0c0.046936035 0 0.09194946 0.01864624 0.12514496 0.051841736c0.033187866 0.033187866 0.051834106 0.078201294 0.051834106 0.12513733l0 0.707901c0 0.0977478 -0.07923889 0.17697906 -0.17697906 0.17697906l-57.942062 0c-0.09774017 0 -0.17697906 -0.07923126 -0.17697906 -0.17697906z" fill-rule="evenodd"/></g></svg>