<svg version="1.1" viewBox="0.0 0.0 1000.0 500.0" fill="none" stroke="none" stroke-linecap="square" stroke-miterlimit="10" xmlns:xlink="http://www.w3.org/1999/xlink" xmlns="http://www.w3.org/2000/svg"><clipPath id="p.0"><path d="m0 0l1000.0 0l0 500.0l-1000.0 0l0 -500.0z" clip-rule="nonzero"/></clipPath><g clip-path="url(#p.0)"><path fill="#000000" fill-opacity="0.0" d="m0 0l1000.0 0l0 500.0l-1000.0 0z" fill-rule="evenodd"/><path fill="#000000" fill-opacity="0.0" d="m586.4972 250.0006l0 0c0 -16.956879 -13.746277 -30.703125 -30.703125 -30.703125l0 0c-8.143005 0 -15.952454 3.234787 -21.710388 8.992737c-5.7579956 5.75795 -8.992737 13.567413 -8.992737 21.710388l0 0c0 16.956863 13.746216 30.70311 30.703125 30.70311l0 0c16.956848 0 30.703125 -13.746246 30.703125 -30.70311z" fill-rule="evenodd"/><path stroke="#000000" stroke-width="16.0" stroke-linejoin="round" stroke-linecap="butt" d="m586.4972 250.0006l0 0c0 -16.956879 -13.746277 -30.703125 -30.703125 -30.703125l0 0c-8.143005 0 -15.952454 3.234787 -21.710388 8.992737c-5.7579956 5.75795 -8.992737 13.567413 -8.992737 21.710388l0 0c0 16.956863 13.746216 30.70311 30.703125 30.70311l0 0c16.956848 0 30.703125 -13.746246 30.703125 -30.70311z" fill-rule="evenodd"/><path fill="#000000" fill-opacity="0.0" d="m525.09076 249.75595l0 0c0 -0.06739807 -0.054626465 -0.122024536 -0.12200928 -0.122024536l-151.4411 0c-0.032348633 0 -0.06338501 0.0128479 -0.08627319 0.035736084c-0.022888184 0.022888184 -0.035736084 0.05392456 -0.035736084 0.08628845l0 0.48812866c0 0.06739807 0.054626465 0.122024536 0.12200928 0.122024536l151.4411 0c0.06738281 0 0.12200928 -0.054626465 0.12200928 -0.122024536z" fill-rule="evenodd"/><path stroke="#000000" stroke-width="16.0" stroke-linejoin="round" stroke-linecap="butt" d="m525.09076 249.75595l0 0c0 -0.06739807 -0.054626465 -0.122024536 -0.12200928 -0.122024536l-151.4411 0c-0.032348633 0 -0.06338501 0.0128479 -0.08627319 0.035736084c-0.022888184 0.022888184 -0.035736084 0.05392456 -0.035736084 0.08628845l0 0.48812866c0 0.06739807 0.054626465 0.122024536 0.12200928 0.122024536l151.4411 0c0.06738281 0 0.12200928 -0.054626465 0.12200928 -0.122024536z" fill-rule="evenodd"/><path fill="#000000" fill-opacity="0.0" d="m626.6942 249.75595l0 0c0 -0.06739807 -0.054626465 -0.122024536 -0.12207031 -0.122024536l-39.953064 0c-0.032409668 0 -0.06341553 0.0128479 -0.08630371 0.035736084c-0.022888184 0.022888184 -0.0357666 0.05392456 -0.0357666 0.08628845l0 0.48812866c0 0.06739807 0.054626465 0.122024536 0.12207031 0.122024536l39.953064 0c0.06744385 0 0.12207031 -0.054626465 0.12207031 -0.122024536z" fill-rule="evenodd"/><path stroke="#000000" stroke-width="16.0" stroke-linejoin="round" stroke-linecap="butt" d="m626.6942 249.75595l0 0c0 -0.06739807 -0.054626465 -0.122024536 -0.12207031 -0.122024536l-39.953064 0c-0.032409668 0 -0.06341553 0.0128479 -0.08630371 0.035736084c-0.022888184 0.022888184 -0.0357666 0.05392456 -0.0357666 0.08628845l0 0.48812866c0 0.06739807 0.054626465 0.122024536 0.12207031 0.122024536l39.953064 0c0.06744385 0 0.12207031 -0.054626465 0.12207031 -0.122024536z" fill-rule="evenodd"/><path fill="#000000" fill-opacity="0.0" d="m413.50253 357.86163l0 0c0 -16.956879 13.746246 -30.703125 30.703125 -30.703125l0 0c8.142975 0 15.952423 3.2347717 21.710358 8.992737c5.757965 5.7579346 8.992737 13.567413 8.992737 21.710388l0 0c0 16.956848 -13.746246 30.703125 -30.703094 30.703125l0 0c-16.956879 0 -30.703125 -13.746277 -30.703125 -30.703125z" fill-rule="evenodd"/><path stroke="#000000" stroke-width="16.0" stroke-linejoin="round" stroke-linecap="butt" d="m413.50253 357.86163l0 0c0 -16.956879 13.746246 -30.703125 30.703125 -30.703125l0 0c8.142975 0 15.952423 3.2347717 21.710358 8.992737c5.757965 5.7579346 8.992737 13.567413 8.992737 21.710388l0 0c0 16.956848 -13.746246 30.703125 -30.703094 30.703125l0 0c-16.956879 0 -30.703125 -13.746277 -30.703125 -30.703125z" fill-rule="evenodd"/><path fill="#000000" fill-opacity="0.0" d="m474.9089 357.617l0 0c0 -0.06741333 0.054656982 -0.122039795 0.122039795 -0.122039795l151.4411 0c0.032348633 0 0.06341553 0.0128479 0.08630371 0.035736084c0.022888184 0.022888184 0.035705566 0.05392456 0.035705566 0.08630371l0 0.48809814c0 0.06741333 -0.054626465 0.122039795 -0.12200928 0.122039795l-151.4411 0c-0.06738281 0 -0.122039795 -0.054626465 -0.122039795 -0.122039795z" fill-rule="evenodd"/><path stroke="#000000" stroke-width="16.0" stroke-linejoin="round" stroke-linecap="butt" d="m474.9089 357.617l0 0c0 -0.06741333 0.054656982 -0.122039795 0.122039795 -0.122039795l151.4411 0c0.032348633 0 0.06341553 0.0128479 0.08630371 0.035736084c0.022888184 0.022888184 0.035705566 0.05392456 0.035705566 0.08630371l0 0.48809814c0 0.06741333 -0.054626465 0.122039795 -0.12200928 0.122039795l-151.4411 0c-0.06738281 0 -0.122039795 -0.054626465 -0.122039795 -0.122039795z" fill-rule="evenodd"/><path fill="#000000" fill-opacity="0.0" d="m373.30548 357.617l0 0c0 -0.06741333 0.054656982 -0.122039795 0.122039795 -0.122039795l39.953125 0c0.032348633 0 0.06338501 0.0128479 0.08627319 0.035736084c0.022888184 0.022888184 0.035736084 0.05392456 0.035736084 0.08630371l0 0.48809814c0 0.06741333 -0.054626465 0.122039795 -0.12200928 0.122039795l-39.953125 0c-0.06738281 0 -0.122039795 -0.054626465 -0.122039795 -0.122039795z" fill-rule="evenodd"/><path stroke="#000000" stroke-width="16.0" stroke-linejoin="round" stroke-linecap="butt" d="m373.30548 357.617l0 0c0 -0.06741333 0.054656982 -0.122039795 0.122039795 -0.122039795l39.953125 0c0.032348633 0 0.06338501 0.0128479 0.08627319 0.035736084c0.022888184 0.022888184 0.035736084 0.05392456 0.035736084 0.08630371l0 0.48809814c0 0.06741333 -0.054626465 0.122039795 -0.12200928 0.122039795l-39.953125 0c-0.06738281 0 -0.122039795 -0.054626465 -0.122039795 -0.122039795z" fill-rule="evenodd"/><path fill="#000000" fill-opacity="0.0" d="m413.50253 142.13956l0 0c0 -16.956871 13.746246 -30.703125 30.703125 -30.703125l0 0c8.142975 0 15.952423 3.2347794 21.710358 8.992737c5.757965 5.75795 8.992737 13.567413 8.992737 21.710388l0 0c0 16.956863 -13.746246 30.703125 -30.703094 30.703125l0 0c-16.956879 0 -30.703125 -13.746262 -30.703125 -30.703125z" fill-rule="evenodd"/><path stroke="#000000" stroke-width="16.0" stroke-linejoin="round" stroke-linecap="butt" d="m413.50253 142.13956l0 0c0 -16.956871 13.746246 -30.703125 30.703125 -30.703125l0 0c8.142975 0 15.952423 3.2347794 21.710358 8.992737c5.757965 5.75795 8.992737 13.567413 8.992737 21.710388l0 0c0 16.956863 -13.746246 30.703125 -30.703094 30.703125l0 0c-16.956879 0 -30.703125 -13.746262 -30.703125 -30.703125z" fill-rule="evenodd"/><path fill="#000000" fill-opacity="0.0" d="m474.9089 141.89493l0 0c0 -0.06739807 0.054656982 -0.122039795 0.122039795 -0.122039795l151.4411 0c0.032348633 0 0.06341553 0.012863159 0.08630371 0.035736084c0.022888184 0.022888184 0.035705566 0.05392456 0.035705566 0.08630371l0 0.4881134c0 0.06739807 -0.054626465 0.122039795 -0.12200928 0.122039795l-151.4411 0c-0.06738281 0 -0.122039795 -0.054641724 -0.122039795 -0.122039795z" fill-rule="evenodd"/><path stroke="#000000" stroke-width="16.0" stroke-linejoin="round" stroke-linecap="butt" d="m474.9089 141.89493l0 0c0 -0.06739807 0.054656982 -0.122039795 0.122039795 -0.122039795l151.4411 0c0.032348633 0 0.06341553 0.012863159 0.08630371 0.035736084c0.022888184 0.022888184 0.035705566 0.05392456 0.035705566 0.08630371l0 0.4881134c0 0.06739807 -0.054626465 0.122039795 -0.12200928 0.122039795l-151.4411 0c-0.06738281 0 -0.122039795 -0.054641724 -0.122039795 -0.122039795z" fill-rule="evenodd"/><path fill="#000000" fill-opacity="0.0" d="m373.30548 141.89493l0 0c0 -0.06739807 0.054656982 -0.122039795 0.122039795 -0.122039795l39.953125 0c0.032348633 0 0.06338501 0.012863159 0.08627319 0.035736084c0.022888184 0.022888184 0.035736084 0.05392456 0.035736084 0.08630371l0 0.4881134c0 0.06739807 -0.054626465 0.122039795 -0.12200928 0.122039795l-39.953125 0c-0.06738281 0 -0.122039795 -0.054641724 -0.122039795 -0.122039795z" fill-rule="evenodd"/><path stroke="#000000" stroke-width="16.0" stroke-linejoin="round" stroke-linecap="butt" d="m373.30548 141.89493l0 0c0 -0.06739807 0.054656982 -0.122039795 0.122039795 -0.122039795l39.953125 0c0.032348633 0 0.06338501 0.012863159 0.08627319 0.035736084c0.022888184 0.022888184 0.035736084 0.05392456 0.035736084 0.08630371l0 0.4881134c0 0.06739807 -0.054626465 0.122039795 -0.12200928 0.122039795l-39.953125 0c-0.06738281 0 -0.122039795 -0.054641724 -0.122039795 -0.122039795z" fill-rule="evenodd"/></g></svg>