<svg version="1.1" viewBox="0.0 0.0 500.0 500.0" fill="none" stroke="none" stroke-linecap="square" stroke-miterlimit="10" xmlns:xlink="http://www.w3.org/1999/xlink" xmlns="http://www.w3.org/2000/svg"><clipPath id="p.0"><path d="m0 0l500.0 0l0 500.0l-500.0 0l0 -500.0z" clip-rule="nonzero"/></clipPath><g clip-path="url(#p.0)"><path fill="#000000" fill-opacity="0.0" d="m0 0l500.0 0l0 500.0l-500.0 0z" fill-rule="evenodd"/><path fill="#000000" fill-opacity="0.0" d="m163.9414 185.85818l0 0c0 -84.52131 68.51807 -153.03937 153.03937 -153.03937l0 0c40.588562 0 79.51474 16.123745 108.21518 44.824192c28.70044 28.700447 44.82419 67.62662 44.82419 108.21518l0 0c0 84.5213 -68.51807 153.03937 -153.03937 153.03937l0 0c-84.5213 0 -153.03937 -68.51807 -153.03937 -153.03937z" fill-rule="evenodd"/><path stroke="#ffffff" stroke-width="24.0" stroke-linejoin="round" stroke-linecap="butt" d="m163.9414 185.85818l0 0c0 -84.52131 68.51807 -153.03937 153.03937 -153.03937l0 0c40.588562 0 79.51474 16.123745 108.21518 44.824192c28.70044 28.700447 44.82419 67.62662 44.82419 108.21518l0 0c0 84.5213 -68.51807 153.03937 -153.03937 153.03937l0 0c-84.5213 0 -153.03937 -68.51807 -153.03937 -153.03937z" fill-rule="evenodd"/><path fill="#000000" fill-opacity="0.0" d="m47.570473 449.6062l0 0l0 0c-4.6653023 -4.6611023 -7.287071 -10.983795 -7.2885475 -17.577087c-0.0014762878 -6.5933228 2.6174622 -12.917175 7.280678 -17.580383l141.12598 -141.12598c1.6784668E-4 -1.5258789E-4 4.272461E-4 -1.5258789E-4 5.950928E-4 0l35.18051 35.149597l0 0c1.5258789E-4 1.5258789E-4 1.5258789E-4 4.272461E-4 0 5.79834E-4l-141.12598 141.1254l0 0c-9.710648 9.710663 -25.458237 9.714172 -35.173233 0.007873535z" fill-rule="evenodd"/><path stroke="#ffffff" stroke-width="16.0" stroke-linejoin="round" stroke-linecap="butt" d="m47.570473 449.6062l0 0l0 0c-4.6653023 -4.6611023 -7.287071 -10.983795 -7.2885475 -17.577087c-0.0014762878 -6.5933228 2.6174622 -12.917175 7.280678 -17.580383l141.12598 -141.12598c1.6784668E-4 -1.5258789E-4 4.272461E-4 -1.5258789E-4 5.950928E-4 0l35.18051 35.149597l0 0c1.5258789E-4 1.5258789E-4 1.5258789E-4 4.272461E-4 0 5.79834E-4l-141.12598 141.1254l0 0c-9.710648 9.710663 -25.458237 9.714172 -35.173233 0.007873535z" fill-rule="evenodd"/><path fill="#000000" fill-opacity="0.0" d="m246.2068 241.3723l0 0c0 -9.64064 7.815277 -17.455933 17.455917 -17.455933l0 0c4.629608 0 9.069611 1.8390961 12.343231 5.1127167c3.2736206 3.2736359 5.112732 7.713608 5.112732 12.343216l0 0c0 9.6406555 -7.8153076 17.455948 -17.455963 17.455948l0 0c-9.64064 0 -17.455917 -7.8152924 -17.455917 -17.455948z" fill-rule="evenodd"/><path stroke="#ffffff" stroke-width="16.0" stroke-linejoin="round" stroke-linecap="butt" d="m246.2068 241.3723l0 0c0 -9.64064 7.815277 -17.455933 17.455917 -17.455933l0 0c4.629608 0 9.069611 1.8390961 12.343231 5.1127167c3.2736206 3.2736359 5.112732 7.713608 5.112732 12.343216l0 0c0 9.6406555 -7.8153076 17.455948 -17.455963 17.455948l0 0c-9.64064 0 -17.455917 -7.8152924 -17.455917 -17.455948z" fill-rule="evenodd"/><path fill="#000000" fill-opacity="0.0" d="m346.29666 242.03645l0 0c0 9.218109 -7.4311523 16.712753 -16.648926 16.791183c-9.217773 0.07839966 -16.77536 -7.2887115 -16.93219 -16.505493l16.789337 -0.2856903z" fill-rule="evenodd"/><path fill="#000000" fill-opacity="0.0" d="m346.29666 242.03645l0 0c0 9.218109 -7.4311523 16.712753 -16.648926 16.791183c-9.217773 0.07839966 -16.77536 -7.2887115 -16.93219 -16.505493" fill-rule="evenodd"/><path stroke="#ffffff" stroke-width="16.0" stroke-linejoin="round" stroke-linecap="butt" d="m346.29666 242.03645l0 0c0 9.218109 -7.4311523 16.712753 -16.648926 16.791183c-9.217773 0.07839966 -16.77536 -7.2887115 -16.93219 -16.505493" fill-rule="evenodd"/><path fill="#000000" fill-opacity="0.0" d="m411.47467 242.03645l0 0c0 9.218109 -7.4311523 16.712753 -16.648926 16.791183c-9.217773 0.07839966 -16.77536 -7.2887115 -16.93219 -16.505493l16.789337 -0.2856903z" fill-rule="evenodd"/><path fill="#000000" fill-opacity="0.0" d="m411.47467 242.03645l0 0c0 9.218109 -7.4311523 16.712753 -16.648926 16.791183c-9.217773 0.07839966 -16.77536 -7.2887115 -16.93219 -16.505493" fill-rule="evenodd"/><path stroke="#ffffff" stroke-width="16.0" stroke-linejoin="round" stroke-linecap="butt" d="m411.47467 242.03645l0 0c0 9.218109 -7.4311523 16.712753 -16.648926 16.791183c-9.217773 0.07839966 -16.77536 -7.2887115 -16.93219 -16.505493" fill-rule="evenodd"/><path fill="#000000" fill-opacity="0.0" d="m263.66217 129.53389l0 0c-9.218109 0 -16.712753 -7.43116 -16.791168 -16.648933c-0.07841492 -9.217773 7.2887115 -16.775368 16.505493 -16.932205l0.28567505 16.789352z" fill-rule="evenodd"/><path fill="#000000" fill-opacity="0.0" d="m263.66217 129.53389l0 0c-9.218109 0 -16.712753 -7.43116 -16.791168 -16.648933c-0.07841492 -9.217773 7.2887115 -16.775368 16.505493 -16.932205" fill-rule="evenodd"/><path stroke="#ffffff" stroke-width="16.0" stroke-linejoin="round" stroke-linecap="butt" d="m263.66217 129.53389l0 0c-9.218109 0 -16.712753 -7.43116 -16.791168 -16.648933c-0.07841492 -9.217773 7.2887115 -16.775368 16.505493 -16.932205" fill-rule="evenodd"/><path fill="#000000" fill-opacity="0.0" d="m263.66217 193.51662l0 0c-9.218109 0 -16.712753 -7.4311523 -16.791168 -16.648926c-0.07841492 -9.217773 7.2887115 -16.77536 16.505493 -16.93219l0.28567505 16.789337z" fill-rule="evenodd"/><path fill="#000000" fill-opacity="0.0" d="m263.66217 193.51662l0 0c-9.218109 0 -16.712753 -7.4311523 -16.791168 -16.648926c-0.07841492 -9.217773 7.2887115 -16.77536 16.505493 -16.93219" fill-rule="evenodd"/><path stroke="#ffffff" stroke-width="16.0" stroke-linejoin="round" stroke-linecap="butt" d="m263.66217 193.51662l0 0c-9.218109 0 -16.712753 -7.4311523 -16.791168 -16.648926c-0.07841492 -9.217773 7.2887115 -16.77536 16.505493 -16.93219" fill-rule="evenodd"/><path fill="#000000" fill-opacity="0.0" d="m262.0929 95.94977l0 0c39.6203 0 77.61783 15.404778 105.633606 42.825455c28.015778 27.420685 43.754883 64.611115 43.754883 103.38982l-149.38849 0z" fill-rule="evenodd"/><path fill="#000000" fill-opacity="0.0" d="m262.0929 95.94977l0 0c39.6203 0 77.61783 15.404778 105.633606 42.825455c28.015778 27.420685 43.754883 64.611115 43.754883 103.38982" fill-rule="evenodd"/><path stroke="#ffffff" stroke-width="16.0" stroke-linejoin="round" stroke-linecap="butt" d="m262.0929 95.94977l0 0c39.6203 0 77.61783 15.404778 105.633606 42.825455c28.015778 27.420685 43.754883 64.611115 43.754883 103.38982" fill-rule="evenodd"/><path fill="#000000" fill-opacity="0.0" d="m263.15958 129.53444l0 0c30.42691 0 59.607635 11.931549 81.12271 33.169846c21.515076 21.238281 33.60211 50.043594 33.60211 80.07907l-114.72482 0z" fill-rule="evenodd"/><path fill="#000000" fill-opacity="0.0" d="m263.15958 129.53444l0 0c30.42691 0 59.607635 11.931549 81.12271 33.169846c21.515076 21.238281 33.60211 50.043594 33.60211 80.07907" fill-rule="evenodd"/><path stroke="#ffffff" stroke-width="16.0" stroke-linejoin="round" stroke-linecap="butt" d="m263.15958 129.53444l0 0c30.42691 0 59.607635 11.931549 81.12271 33.169846c21.515076 21.238281 33.60211 50.043594 33.60211 80.07907" fill-rule="evenodd"/><path fill="#000000" fill-opacity="0.0" d="m263.32953 159.93362l0 0c22.003967 0 43.10669 8.688019 58.665833 24.152817c15.559143 15.464783 24.300201 36.43953 24.300201 58.310043l-82.966034 0z" fill-rule="evenodd"/><path fill="#000000" fill-opacity="0.0" d="m263.32953 159.93362l0 0c22.003967 0 43.10669 8.688019 58.665833 24.152817c15.559143 15.464783 24.300201 36.43953 24.300201 58.310043" fill-rule="evenodd"/><path stroke="#ffffff" stroke-width="16.0" stroke-linejoin="round" stroke-linecap="butt" d="m263.32953 159.93362l0 0c22.003967 0 43.10669 8.688019 58.665833 24.152817c15.559143 15.464783 24.300201 36.43953 24.300201 58.310043" fill-rule="evenodd"/><path fill="#000000" fill-opacity="0.0" d="m261.44217 193.51718l0 0c13.597015 0 26.637115 5.205612 36.251648 14.471649c9.614532 9.266037 15.01593 21.83348 15.01593 34.937637l-51.26758 0z" fill-rule="evenodd"/><path fill="#000000" fill-opacity="0.0" d="m261.44217 193.51718l0 0c13.597015 0 26.637115 5.205612 36.251648 14.471649c9.614532 9.266037 15.01593 21.83348 15.01593 34.937637" fill-rule="evenodd"/><path stroke="#ffffff" stroke-width="16.0" stroke-linejoin="round" stroke-linecap="butt" d="m261.44217 193.51718l0 0c13.597015 0 26.637115 5.205612 36.251648 14.471649c9.614532 9.266037 15.01593 21.83348 15.01593 34.937637" fill-rule="evenodd"/></g></svg>