<svg version="1.1" viewBox="0.0 0.0 500.0 250.0" fill="none" stroke="none" stroke-linecap="square" stroke-miterlimit="10" xmlns:xlink="http://www.w3.org/1999/xlink" xmlns="http://www.w3.org/2000/svg"><clipPath id="p.0"><path d="m0 0l500.0 0l0 250.0l-500.0 0l0 -250.0z" clip-rule="nonzero"/></clipPath><g clip-path="url(#p.0)"><path fill="#000000" fill-opacity="0.0" d="m0 0l500.0 0l0 250.0l-500.0 0z" fill-rule="evenodd"/><path fill="#000000" fill-opacity="0.0" d="m139.2126 125.0l0 0c0 -59.107513 49.60121 -107.02362 110.7874 -107.02362l0 0c29.38266 0 57.56186 11.275671 78.33853 31.346495c20.776672 20.07082 32.448883 47.292698 32.448883 75.677124l0 0c0 59.107513 -49.601227 107.02362 -110.787415 107.02362l0 0c-61.186188 0 -110.7874 -47.916107 -110.7874 -107.02362z" fill-rule="evenodd"/><path stroke="#ffffff" stroke-width="24.0" stroke-linejoin="round" stroke-linecap="butt" d="m139.2126 125.0l0 0c0 -59.107513 49.60121 -107.02362 110.7874 -107.02362l0 0c29.38266 0 57.56186 11.275671 78.33853 31.346495c20.776672 20.07082 32.448883 47.292698 32.448883 75.677124l0 0c0 59.107513 -49.601227 107.02362 -110.787415 107.02362l0 0c-61.186188 0 -110.7874 -47.916107 -110.7874 -107.02362z" fill-rule="evenodd"/><path fill="#000000" fill-opacity="0.0" d="m28.976377 125.0l0 0c0 -59.107513 98.95564 -107.02362 221.02362 -107.02362l0 0c122.06796 0 221.02362 47.916107 221.02362 107.02362l0 0c0 59.107513 -98.95566 107.02362 -221.02362 107.02362l0 0c-122.06798 0 -221.02362 -47.916107 -221.02362 -107.02362z" fill-rule="evenodd"/><path stroke="#ffffff" stroke-width="24.0" stroke-linejoin="round" stroke-linecap="butt" d="m28.976377 125.0l0 0c0 -59.107513 98.95564 -107.02362 221.02362 -107.02362l0 0c122.06796 0 221.02362 47.916107 221.02362 107.02362l0 0c0 59.107513 -98.95566 107.02362 -221.02362 107.02362l0 0c-122.06798 0 -221.02362 -47.916107 -221.02362 -107.02362z" fill-rule="evenodd"/><path fill="#ffffff" d="m200.97635 125.0l0 0c0 -27.0663 21.948624 -49.007874 49.02362 -49.007874l0 0c13.001862 0 25.471222 5.163315 34.664948 14.354073c9.193695 9.190758 14.358673 21.656105 14.358673 34.6538l0 0c0 27.0663 -21.948608 49.007874 -49.02362 49.007874l0 0c-27.074997 0 -49.02362 -21.941574 -49.02362 -49.007874z" fill-rule="evenodd"/><path stroke="#ffffff" stroke-width="24.0" stroke-linejoin="round" stroke-linecap="butt" d="m200.97635 125.0l0 0c0 -27.0663 21.948624 -49.007874 49.02362 -49.007874l0 0c13.001862 0 25.471222 5.163315 34.664948 14.354073c9.193695 9.190758 14.358673 21.656105 14.358673 34.6538l0 0c0 27.0663 -21.948608 49.007874 -49.02362 49.007874l0 0c-27.074997 0 -49.02362 -21.941574 -49.02362 -49.007874z" fill-rule="evenodd"/></g></svg>