<svg version="1.1" viewBox="0.0 0.0 500.0 500.0" fill="none" stroke="none" stroke-linecap="square" stroke-miterlimit="10" xmlns:xlink="http://www.w3.org/1999/xlink" xmlns="http://www.w3.org/2000/svg"><clipPath id="p.0"><path d="m0 0l500.0 0l0 500.0l-500.0 0l0 -500.0z" clip-rule="nonzero"/></clipPath><g clip-path="url(#p.0)"><path fill="#000000" fill-opacity="0.0" d="m0 0l500.0 0l0 500.0l-500.0 0z" fill-rule="evenodd"/><path fill="#000000" fill-opacity="0.0" d="m30.76509 59.30203l0 0c0 -15.756889 12.773487 -28.530375 28.530376 -28.530375l381.39594 0c7.566742 0 14.823547 3.005869 20.174011 8.356352c5.3504944 5.3504868 8.356354 12.6073 8.356354 20.174023l0 381.39594c0 15.756897 -12.773468 28.530365 -28.530365 28.530365l-381.39594 0l0 0c-15.756889 0 -28.530376 -12.773468 -28.530376 -28.530365z" fill-rule="evenodd"/><path stroke="#ffffff" stroke-width="16.0" stroke-linejoin="round" stroke-linecap="butt" d="m30.76509 59.30203l0 0c0 -15.756889 12.773487 -28.530375 28.530376 -28.530375l381.39594 0c7.566742 0 14.823547 3.005869 20.174011 8.356352c5.3504944 5.3504868 8.356354 12.6073 8.356354 20.174023l0 381.39594c0 15.756897 -12.773468 28.530365 -28.530365 28.530365l-381.39594 0l0 0c-15.756889 0 -28.530376 -12.773468 -28.530376 -28.530365z" fill-rule="evenodd"/><path fill="#ffffff" d="m344.8269 240.48024l0 0c0 -4.515625 3.6606445 -8.17627 8.17627 -8.17627l0 0l0 0c2.1684875 0 4.2481384 0.86143494 5.781494 2.3947754c1.5333557 1.5333557 2.3947754 3.6130219 2.3947754 5.781494l0 12.49614c0 4.515625 -3.6606445 8.17627 -8.17627 8.17627l0 0l0 0c-4.515625 0 -8.17627 -3.6606445 -8.17627 -8.17627z" fill-rule="evenodd"/><path fill="#ffffff" d="m138.8067 244.87274l0 0c0 -4.515625 3.6606293 -8.176254 8.176254 -8.176254l0 0l0 0c2.1684875 0 4.2481537 0.8614197 5.781494 2.3947754c1.5333557 1.5333405 2.3947754 3.6130066 2.3947754 5.781479l0 4.6379547c0 4.515625 -3.6606445 8.176254 -8.17627 8.176254l0 0l0 0c-4.515625 0 -8.176254 -3.6606293 -8.176254 -8.176254z" fill-rule="evenodd"/><path fill="#ffffff" d="m270.3512 126.166046l0 0c0 -4.515625 3.6606445 -8.176262 8.17627 -8.176262l0 0l0 0c2.168457 0 4.2481384 0.8614197 5.781494 2.3947678c1.5333252 1.5333481 2.3947449 3.6130142 2.3947449 5.781494l0 242.03574c0 4.515625 -3.660614 8.17627 -8.176239 8.17627l0 0l0 0c-4.515625 0 -8.17627 -3.6606445 -8.17627 -8.17627z" fill-rule="evenodd"/><path fill="#ffffff" d="m217.73445 151.01186l0 0c0 -4.515625 3.6606445 -8.176254 8.17627 -8.176254l0 0l0 0c2.1684723 0 4.2481384 0.8614197 5.781494 2.3947754c1.5333405 1.5333405 2.3947601 3.6130066 2.3947601 5.781479l0 191.4341c0 4.515625 -3.6606293 8.17627 -8.176254 8.17627l0 0l0 0c-4.515625 0 -8.17627 -3.6606445 -8.17627 -8.17627z" fill-rule="evenodd"/><path fill="#ffffff" d="m244.04277 163.57707l0 0c0 -4.515625 3.6606445 -8.17627 8.17627 -8.17627l0 0l0 0c2.1684875 0 4.2481537 0.8614197 5.781479 2.3947754c1.5333557 1.5333405 2.3947754 3.6130066 2.3947754 5.781494l0 167.22408c0 4.515625 -3.660614 8.17627 -8.176254 8.17627l0 0l0 0c-4.515625 0 -8.17627 -3.6606445 -8.17627 -8.17627z" fill-rule="evenodd"/><path fill="#ffffff" d="m295.17557 151.47064l0 0c0 -4.515625 3.6606445 -8.17627 8.17627 -8.17627l0 0l0 0c2.168457 0 4.2481384 0.86143494 5.781494 2.3947754c1.5333252 1.5333557 2.3947449 3.6130066 2.3947449 5.781494l0 191.43408c0 4.515625 -3.660614 8.17627 -8.176239 8.17627l0 0l0 0c-4.515625 0 -8.17627 -3.6606445 -8.17627 -8.17627z" fill-rule="evenodd"/><path fill="#ffffff" d="m207.78006 224.32814l0 0c0 -4.515625 -3.6606293 -8.17627 -8.176254 -8.17627l0 0l0 0c-2.1684875 0 -4.2481537 0.86143494 -5.781494 2.3947754c-1.5333557 1.5333557 -2.3947754 3.6130066 -2.3947754 5.781494l0 45.729294c0 4.515625 3.6606445 8.176239 8.17627 8.176239l0 0l0 0c4.515625 0 8.176254 -3.660614 8.176254 -8.176239z" fill-rule="evenodd"/><path fill="#ffffff" d="m181.47157 232.64087l0 0c0 -4.515625 -3.6606293 -8.176254 -8.176254 -8.176254l0 0l0 0c-2.1684875 0 -4.2481537 0.8614197 -5.781494 2.3947754c-1.5333557 1.5333405 -2.3947754 3.6130066 -2.3947754 5.781479l0 28.191345c0 4.515625 3.6606293 8.17627 8.17627 8.17627l0 0l0 0c4.515625 0 8.176254 -3.6606445 8.176254 -8.17627z" fill-rule="evenodd"/><path fill="#ffffff" d="m336.35406 232.63382l0 0c0 -4.515625 -3.660614 -8.17627 -8.17627 -8.17627l0 0l0 0c-2.168457 0 -4.2481384 0.86143494 -5.7814636 2.3947754c-1.5333557 1.5333405 -2.3947754 3.6130066 -2.3947754 5.781494l0 28.191315c0 4.515625 3.660614 8.17627 8.176239 8.17627l0 0l0 0c4.5156555 0 8.17627 -3.6606445 8.17627 -8.17627z" fill-rule="evenodd"/><path fill="#ffffff" d="m437.97244 30.771654l15.62204 0l0 0c4.143219 0 8.11676 1.6458874 11.046448 4.57559c2.929718 2.9297028 4.575592 6.9032326 4.575592 11.046455l0 56.472443l-31.24408 0z" fill-rule="evenodd"/><path stroke="#ffffff" stroke-width="16.0" stroke-linejoin="round" stroke-linecap="butt" d="m437.97244 30.771654l15.62204 0l0 0c4.143219 0 8.11676 1.6458874 11.046448 4.57559c2.929718 2.9297028 4.575592 6.9032326 4.575592 11.046455l0 56.472443l-31.24408 0z" fill-rule="evenodd"/><path fill="#ffffff" d="m437.97244 469.22833l15.62204 0l0 0c4.143219 0 8.11676 -1.645874 11.046448 -4.575592c2.929718 -2.9296875 4.575592 -6.9032288 4.575592 -11.046448l0 -56.472443l-31.24408 0z" fill-rule="evenodd"/><path stroke="#ffffff" stroke-width="16.0" stroke-linejoin="round" stroke-linecap="butt" d="m437.97244 469.22833l15.62204 0l0 0c4.143219 0 8.11676 -1.645874 11.046448 -4.575592c2.929718 -2.9296875 4.575592 -6.9032288 4.575592 -11.046448l0 -56.472443l-31.24408 0z" fill-rule="evenodd"/><path fill="#ffffff" d="m62.03806 30.771654l-15.622047 0l0 0c-4.1432266 0 -8.116756 1.6458874 -11.046455 4.57559c-2.9297028 2.9297028 -4.575594 6.9032326 -4.575594 11.046455l0 56.472443l31.244097 0z" fill-rule="evenodd"/><path stroke="#ffffff" stroke-width="16.0" stroke-linejoin="round" stroke-linecap="butt" d="m62.03806 30.771654l-15.622047 0l0 0c-4.1432266 0 -8.116756 1.6458874 -11.046455 4.57559c-2.9297028 2.9297028 -4.575594 6.9032326 -4.575594 11.046455l0 56.472443l31.244097 0z" fill-rule="evenodd"/><path fill="#ffffff" d="m62.03806 469.22833l-15.622047 0l0 0c-4.1432266 0 -8.116756 -1.645874 -11.046455 -4.575592c-2.9297028 -2.9296875 -4.575594 -6.9032288 -4.575594 -11.046448l0 -56.472443l31.244097 0z" fill-rule="evenodd"/><path stroke="#ffffff" stroke-width="16.0" stroke-linejoin="round" stroke-linecap="butt" d="m62.03806 469.22833l-15.622047 0l0 0c-4.1432266 0 -8.116756 -1.645874 -11.046455 -4.575592c-2.9297028 -2.9296875 -4.575594 -6.9032288 -4.575594 -11.046448l0 -56.472443l31.244097 0z" fill-rule="evenodd"/><path fill="#ffffff" d="m234.38324 30.771654l31.24411 0l0 72.09449l-31.24411 0z" fill-rule="evenodd"/><path stroke="#ffffff" stroke-width="16.0" stroke-linejoin="round" stroke-linecap="butt" d="m234.38324 30.771654l31.24411 0l0 72.09449l-31.24411 0z" fill-rule="evenodd"/><path fill="#ffffff" d="m336.17722 30.771654l31.24408 0l0 72.09449l-31.24408 0z" fill-rule="evenodd"/><path stroke="#ffffff" stroke-width="16.0" stroke-linejoin="round" stroke-linecap="butt" d="m336.17722 30.771654l31.24408 0l0 72.09449l-31.24408 0z" fill-rule="evenodd"/><path fill="#ffffff" d="m132.58928 30.771654l31.244095 0l0 72.09449l-31.244095 0z" fill-rule="evenodd"/><path stroke="#ffffff" stroke-width="16.0" stroke-linejoin="round" stroke-linecap="butt" d="m132.58928 30.771654l31.244095 0l0 72.09449l-31.244095 0z" fill-rule="evenodd"/><path fill="#ffffff" d="m234.38324 397.13385l31.24411 0l0 72.09448l-31.24411 0z" fill-rule="evenodd"/><path stroke="#ffffff" stroke-width="16.0" stroke-linejoin="round" stroke-linecap="butt" d="m234.38324 397.13385l31.24411 0l0 72.09448l-31.24411 0z" fill-rule="evenodd"/><path fill="#ffffff" d="m336.17722 397.13385l31.24408 0l0 72.09448l-31.24408 0z" fill-rule="evenodd"/><path stroke="#ffffff" stroke-width="16.0" stroke-linejoin="round" stroke-linecap="butt" d="m336.17722 397.13385l31.24408 0l0 72.09448l-31.24408 0z" fill-rule="evenodd"/><path fill="#ffffff" d="m132.58928 397.13385l31.244095 0l0 72.09448l-31.244095 0z" fill-rule="evenodd"/><path stroke="#ffffff" stroke-width="16.0" stroke-linejoin="round" stroke-linecap="butt" d="m132.58928 397.13385l31.244095 0l0 72.09448l-31.244095 0z" fill-rule="evenodd"/><path fill="#ffffff" d="m30.778215 100.37795l438.45667 0l0 2.4881897l-438.45667 0z" fill-rule="evenodd"/><path stroke="#ffffff" stroke-width="16.0" stroke-linejoin="round" stroke-linecap="butt" d="m30.778215 100.37795l438.45667 0l0 2.4881897l-438.45667 0z" fill-rule="evenodd"/><path fill="#ffffff" d="m30.76509 391.5013l438.45667 0l0 2.4881897l-438.45667 0z" fill-rule="evenodd"/><path stroke="#ffffff" stroke-width="16.0" stroke-linejoin="round" stroke-linecap="butt" d="m30.76509 391.5013l438.45667 0l0 2.4881897l-438.45667 0z" fill-rule="evenodd"/></g></svg>