<svg version="1.1" viewBox="0.0 0.0 1000.0 500.0" fill="none" stroke="none" stroke-linecap="square" stroke-miterlimit="10" xmlns:xlink="http://www.w3.org/1999/xlink" xmlns="http://www.w3.org/2000/svg"><clipPath id="p.0"><path d="m0 0l1000.0 0l0 500.0l-1000.0 0l0 -500.0z" clip-rule="nonzero"/></clipPath><g clip-path="url(#p.0)"><path fill="#000000" fill-opacity="0.0" d="m0 0l1000.0 0l0 500.0l-1000.0 0z" fill-rule="evenodd"/><path fill="#b7b7b7" d="m156.8657 16.126436l0 0c0 -4.836219 3.9205322 -8.756749 8.75676 -8.756749l0 0l0 0c2.3224335 0 4.5497437 0.9225836 6.1919556 2.5647926c1.6422119 1.642209 2.5647888 3.869523 2.5647888 6.1919565l0 467.7455c0 4.836212 -3.9205322 8.756744 -8.756744 8.756744l0 0l0 0c-4.8362274 0 -8.75676 -3.9205322 -8.75676 -8.756744z" fill-rule="evenodd"/><path fill="#b7b7b7" d="m185.03912 37.640636l0 0c0 -4.83622 3.920517 -8.75675 8.756744 -8.75675l0 0l0 0c2.3224335 0 4.5497437 0.92258453 6.1919556 2.5647926c1.6422119 1.64221 2.5647888 3.869524 2.5647888 6.1919575l0 426.11655c0 4.836212 -3.9205322 8.756744 -8.756744 8.756744l0 0l0 0c-4.8362274 0 -8.756744 -3.9205322 -8.756744 -8.756744z" fill-rule="evenodd"/><path fill="#b7b7b7" d="m213.21252 67.57344l0 0c0 -4.8362236 3.9205322 -8.756752 8.756744 -8.756752l0 0l0 0c2.3224335 0 4.5497437 0.9225807 6.1919556 2.5647926c1.6422119 1.6422081 2.564804 3.8695183 2.564804 6.1919594l0 366.7223c0 4.836212 -3.9205322 8.756744 -8.75676 8.756744l0 0l0 0c-4.836212 0 -8.756744 -3.9205322 -8.756744 -8.756744z" fill-rule="evenodd"/><path fill="#b7b7b7" d="m241.38593 174.8572l0 0c0 -4.8362274 3.9205322 -8.75676 8.756744 -8.75676l0 0l0 0c2.3224335 0 4.549759 0.92259216 6.1919556 2.564804c1.6422119 1.6421967 2.5647888 3.869522 2.5647888 6.1919556l0 150.47551c0 4.836212 -3.920517 8.756744 -8.756744 8.756744l0 0l0 0c-4.836212 0 -8.756744 -3.9205322 -8.756744 -8.756744z" fill-rule="evenodd"/><path fill="#b7b7b7" d="m269.55933 175.71156l0 0c0 -4.836212 3.9205322 -8.756744 8.756744 -8.756744l0 0l0 0c2.3224487 0 4.5497437 0.9225769 6.1919556 2.5647888c1.6422119 1.6422119 2.5648193 3.869522 2.5648193 6.1919556l0 150.47551c0 4.836212 -3.9205322 8.756744 -8.756775 8.756744l0 0l0 0c-4.836212 0 -8.756744 -3.9205322 -8.756744 -8.756744z" fill-rule="evenodd"/><path fill="#b7b7b7" d="m297.73273 185.06557l0 0c0 -4.836212 3.9205322 -8.756744 8.756744 -8.756744l0 0l0 0c2.3224487 0 4.549774 0.9225769 6.191986 2.5647888c1.6421814 1.6422119 2.5647888 3.869522 2.5647888 6.1919556l0 130.91313c0 4.836212 -3.9205322 8.756744 -8.756775 8.756744l0 0l0 0c-4.836212 0 -8.756744 -3.9205322 -8.756744 -8.756744z" fill-rule="evenodd"/><path fill="#b7b7b7" d="m325.90613 212.70038l0 0c0 -4.836212 3.9205322 -8.756744 8.756775 -8.756744l0 0l0 0c2.3224182 0 4.5497437 0.9225769 6.1919556 2.5647888c1.6422119 1.6422119 2.5647888 3.869522 2.5647888 6.1919556l0 74.78912c0 4.836212 -3.9205322 8.756744 -8.756744 8.756744l0 0l0 0c-4.8362427 0 -8.756775 -3.9205322 -8.756775 -8.756744z" fill-rule="evenodd"/><path fill="#b7b7b7" d="m354.07956 212.60463l0 0c0 -4.8362274 3.9205017 -8.756744 8.756744 -8.756744l0 0l0 0c2.3224182 0 4.5497437 0.9225769 6.1919556 2.5647888c1.6422119 1.6422119 2.5647888 3.869522 2.5647888 6.1919556l0 74.78911c0 4.8362427 -3.9205322 8.756775 -8.756744 8.756775l0 0l0 0c-4.8362427 0 -8.756744 -3.9205322 -8.756744 -8.756775z" fill-rule="evenodd"/><path fill="#b7b7b7" d="m382.25296 213.55476l0 0c0 -4.8362274 3.9205322 -8.75676 8.756744 -8.75676l0 0l0 0c2.3224182 0 4.5497437 0.92259216 6.1919556 2.564804c1.6422119 1.6421967 2.5647888 3.869522 2.5647888 6.1919556l0 74.78911c0 4.8362427 -3.9205322 8.756744 -8.756744 8.756744l0 0l0 0c-4.836212 0 -8.756744 -3.9205017 -8.756744 -8.756744z" fill-rule="evenodd"/><path fill="#b7b7b7" d="m410.42636 226.59143l0 0c0 -4.836212 3.9205322 -8.756744 8.756744 -8.756744l0 0l0 0c2.3224487 0 4.5497437 0.9225769 6.1919556 2.5647888c1.6422119 1.6422119 2.5647888 3.869522 2.5647888 6.1919556l0 48.71576c0 4.8362427 -3.9205322 8.756775 -8.756744 8.756775l0 0l0 0c-4.836212 0 -8.756744 -3.9205322 -8.756744 -8.756775z" fill-rule="evenodd"/><path fill="#b7b7b7" d="m438.59976 226.59143l0 0c0 -4.836212 3.9205322 -8.756744 8.756744 -8.756744l0 0l0 0c2.3224487 0 4.5497437 0.9225769 6.1919556 2.5647888c1.6422119 1.6422119 2.5647888 3.869522 2.5647888 6.1919556l0 48.71576c0 4.8362427 -3.9205322 8.756775 -8.756744 8.756775l0 0l0 0c-4.836212 0 -8.756744 -3.9205322 -8.756744 -8.756775z" fill-rule="evenodd"/><path fill="#000000" d="m770.32794 233.95924l0 0c0 -4.836212 3.9205322 -8.756744 8.756714 -8.756744l0 0l0 0c2.3224487 0 4.5497437 0.9225769 6.1919556 2.5647888c1.6422119 1.6422119 2.5648193 3.869522 2.5648193 6.1919556l0 25.38234c0 4.836212 -3.9205322 8.756744 -8.756775 8.756744l0 0l0 0c-4.8361816 0 -8.756714 -3.9205322 -8.756714 -8.756744z" fill-rule="evenodd"/><path fill="#000000" d="m466.77316 242.60371l0 0c0 -4.836212 3.9205322 -8.756744 8.756744 -8.756744l0 0l0 0c2.3224487 0 4.5497437 0.9225769 6.1919556 2.5647888c1.6422119 1.6422119 2.5647888 3.869522 2.5647888 6.1919556l0 13.686142l0 0c0 4.836212 -3.9205322 8.756744 -8.756744 8.756744l0 0l0 0c-4.836212 0 -8.756744 -3.9205322 -8.756744 -8.756744z" fill-rule="evenodd"/><path fill="#000000" d="m663.987 33.592148l0 0c0 -4.83622 3.9205322 -8.75675 8.756775 -8.75675l0 0l0 0c2.3223877 0 4.5497437 0.9225826 6.1919556 2.5647926c1.6422119 1.6422081 2.5647583 3.869522 2.5647583 6.1919575l0 426.11652c0 4.836212 -3.9205322 8.756744 -8.756714 8.756744l0 0l0 0c-4.8362427 0 -8.756775 -3.9205322 -8.756775 -8.756744z" fill-rule="evenodd"/><path fill="#000000" d="m692.159 64.224655l0 0c0 -4.83622 3.9205322 -8.756748 8.756775 -8.756748l0 0l0 0c2.3224487 0 4.5497437 0.9225807 6.1919556 2.5647926c1.6422119 1.6422081 2.5647583 3.869522 2.5647583 6.1919556l0 366.7223c0 4.836212 -3.9205322 8.756744 -8.756714 8.756744l0 0l0 0c-4.8362427 0 -8.756775 -3.9205322 -8.756775 -8.756744z" fill-rule="evenodd"/><path fill="#000000" d="m579.4668 101.434425l0 0c0 -4.83622 3.9205322 -8.756752 8.756714 -8.756752l0 0l0 0c2.3224487 0 4.5497437 0.92258453 6.1919556 2.5647964c1.6422119 1.6422043 2.5648193 3.869522 2.5648193 6.1919556l0 291.47784c0 4.8362427 -3.9205322 8.756744 -8.756775 8.756744l0 0l0 0c-4.8361816 0 -8.756714 -3.9205017 -8.756714 -8.756744z" fill-rule="evenodd"/><path fill="#000000" d="m607.6402 102.28166l0 0c0 -4.83622 3.9205322 -8.756752 8.756714 -8.756752l0 0l0 0c2.3224487 0 4.5497437 0.92258453 6.1919556 2.5647888c1.6422119 1.6422119 2.5648193 3.869522 2.5648193 6.191963l0 291.47784c0 4.8362427 -3.9205322 8.756775 -8.756775 8.756775l0 0l0 0c-4.8361816 0 -8.756714 -3.9205322 -8.756714 -8.756775z" fill-rule="evenodd"/><path fill="#000000" d="m635.8136 120.28225l0 0c0 -4.83622 3.9205322 -8.756744 8.756714 -8.756744l0 0l0 0c2.3224487 0 4.5498047 0.9225769 6.1920166 2.5647888c1.6421509 1.6422119 2.5647583 3.869522 2.5647583 6.1919556l0 255.47598c0 4.836212 -3.9205322 8.756744 -8.756775 8.756744l0 0l0 0c-4.8361816 0 -8.756714 -3.9205322 -8.756714 -8.756744z" fill-rule="evenodd"/><path fill="#000000" d="m720.3338 102.28144l0 0c0 -4.83622 3.9205322 -8.756752 8.756775 -8.756752l0 0l0 0c2.3223877 0 4.5497437 0.92258453 6.1919556 2.5647964c1.6422119 1.6422119 2.5647583 3.869522 2.5647583 6.1919556l0 291.47784c0 4.8362427 -3.9205322 8.756744 -8.756714 8.756744l0 0l0 0c-4.8362427 0 -8.756775 -3.9205017 -8.756775 -8.756744z" fill-rule="evenodd"/><path fill="#b7b7b7" d="m797.4451 208.8753l0 0c0 -4.8362274 3.9205322 -8.756744 8.756714 -8.756744l0 0l0 0c2.3224487 0 4.5497437 0.9225769 6.1919556 2.5647888c1.6422119 1.6422119 2.5648193 3.869522 2.5648193 6.1919556l0 74.78912c0 4.836212 -3.9205322 8.756744 -8.756775 8.756744l0 0l0 0c-4.8361816 0 -8.756714 -3.9205322 -8.756714 -8.756744z" fill-rule="evenodd"/><path fill="#b7b7b7" d="m825.6185 208.77956l0 0c0 -4.8362274 3.9205322 -8.756744 8.756714 -8.756744l0 0l0 0c2.3224487 0 4.5497437 0.9225769 6.1919556 2.5647888c1.6422119 1.6422119 2.5648193 3.869522 2.5648193 6.1919556l0 74.78911c0 4.8362427 -3.9205322 8.756775 -8.756775 8.756775l0 0l0 0c-4.8361816 0 -8.756714 -3.9205322 -8.756714 -8.756775z" fill-rule="evenodd"/><path fill="#b7b7b7" d="m853.79193 209.72969l0 0c0 -4.8362274 3.9205322 -8.75676 8.756714 -8.75676l0 0l0 0c2.3224487 0 4.5497437 0.92259216 6.1919556 2.564804c1.6422119 1.6421967 2.5648193 3.869522 2.5648193 6.1919556l0 74.78911c0 4.836212 -3.9205322 8.756744 -8.756775 8.756744l0 0l0 0c-4.8361816 0 -8.756714 -3.9205322 -8.756714 -8.756744z" fill-rule="evenodd"/><path fill="#b7b7b7" d="m881.96533 220.92134l0 0c0 -4.836212 3.9205322 -8.756744 8.756714 -8.756744l0 0l0 0c2.3224487 0 4.5497437 0.9225769 6.1919556 2.5647888c1.6422119 1.6422119 2.5648193 3.869522 2.5648193 6.1919556l0 48.715775c0 4.836212 -3.9205322 8.756744 -8.756775 8.756744l0 0l0 0c-4.8361816 0 -8.756714 -3.9205322 -8.756714 -8.756744z" fill-rule="evenodd"/><path fill="#b7b7b7" d="m910.13873 220.92134l0 0c0 -4.836212 3.9205322 -8.756744 8.756714 -8.756744l0 0l0 0c2.3224487 0 4.5498047 0.9225769 6.1920166 2.5647888c1.6421509 1.6422119 2.5647583 3.869522 2.5647583 6.1919556l0 48.715775c0 4.836212 -3.9205322 8.756744 -8.756775 8.756744l0 0l0 0c-4.8361816 0 -8.756714 -3.9205322 -8.756714 -8.756744z" fill-rule="evenodd"/><path fill="#b7b7b7" d="m938.31213 233.00789l0 0c0 -4.8362274 3.9205322 -8.756744 8.756775 -8.756744l0 0l0 0c2.3223877 0 4.5497437 0.9225769 6.1919556 2.5647888c1.6422119 1.6422119 2.5647583 3.869522 2.5647583 6.1919556l0 25.382309c0 4.8362427 -3.9205322 8.756775 -8.756714 8.756775l0 0l0 0c-4.8362427 0 -8.756775 -3.9205322 -8.756775 -8.756775z" fill-rule="evenodd"/><path fill="#b7b7b7" d="m966.48553 237.68489l0 0c0 -4.8362274 3.9205322 -8.75676 8.756775 -8.75676l0 0l0 0c2.3223877 0 4.5497437 0.92259216 6.1919556 2.564804c1.6422119 1.6422119 2.5647583 3.869522 2.5647583 6.1919556l0 13.686142l0 0c0 4.836212 -3.9205322 8.756744 -8.756714 8.756744l0 0l0 0c-4.8362427 0 -8.756775 -3.9205322 -8.756775 -8.756744z" fill-rule="evenodd"/><path fill="#b7b7b7" d="m146.20581 211.85214l0 0c0 -4.8362274 -3.9205322 -8.75676 -8.75676 -8.75676l0 0l0 0c-2.3224335 0 -4.5497437 0.92259216 -6.1919556 2.5647888c-1.6421967 1.6422119 -2.5647888 3.869522 -2.5647888 6.191971l0 74.78912c0 4.836212 3.9205322 8.756744 8.756744 8.756744l0 0l0 0c4.8362274 0 8.75676 -3.9205322 8.75676 -8.756744z" fill-rule="evenodd"/><path fill="#b7b7b7" d="m118.0324 223.0438l0 0c0 -4.8362274 -3.9205322 -8.756744 -8.756752 -8.756744l0 0l0 0c-2.3224335 0 -4.5497437 0.9225769 -6.1919556 2.5647888c-1.6422043 1.6422119 -2.5647888 3.869522 -2.5647888 6.1919556l0 48.71576c0 4.836212 3.9205246 8.756744 8.756744 8.756744l0 0l0 0c4.83622 0 8.756752 -3.9205322 8.756752 -8.756744z" fill-rule="evenodd"/><path fill="#b7b7b7" d="m89.859 223.0438l0 0c0 -4.8362274 -3.9205322 -8.756744 -8.756752 -8.756744l0 0l0 0c-2.3224335 0 -4.5497513 0.9225769 -6.1919556 2.5647888c-1.6422119 1.6422119 -2.5647964 3.869522 -2.5647964 6.1919556l0 48.71576c0 4.836212 3.9205322 8.756744 8.756752 8.756744l0 0l0 0c4.83622 0 8.756752 -3.9205322 8.756752 -8.756744z" fill-rule="evenodd"/><path fill="#b7b7b7" d="m61.685593 235.13034l0 0c0 -4.8362274 -3.9205284 -8.75676 -8.756748 -8.75676l0 0l0 0c-2.3224373 0 -4.5497475 0.92259216 -6.1919594 2.564804c-1.6422081 1.6422119 -2.5647926 3.869522 -2.5647926 6.1919556l0 25.382324c0 4.836212 3.9205322 8.756744 8.756752 8.756744l0 0l0 0c4.83622 0 8.756748 -3.9205322 8.756748 -8.756744z" fill-rule="evenodd"/><path fill="#b7b7b7" d="m33.512188 239.80734l0 0c0 -4.8362274 -3.9205303 -8.75676 -8.75675 -8.75676l0 0l0 0c-2.3224335 0 -4.5497475 0.92259216 -6.1919556 2.564804c-1.64221 1.6421967 -2.5647936 3.869522 -2.5647936 6.1919556l0 13.686142l0 0c0 4.8362274 3.9205313 8.756729 8.756749 8.756729l0 0l0 0c4.83622 0 8.75675 -3.9205017 8.75675 -8.756729z" fill-rule="evenodd"/><path fill="#000000" d="m568.8069 213.22209l0 0c0 -4.8362274 -3.9205322 -8.756744 -8.756775 -8.756744l0 0l0 0c-2.3223877 0 -4.5497437 0.9225769 -6.1919556 2.5647888c-1.6422119 1.6422119 -2.5647583 3.869522 -2.5647583 6.1919556l0 74.78911c0 4.8362427 3.9205322 8.756775 8.756714 8.756775l0 0l0 0c4.8362427 0 8.756775 -3.9205322 8.756775 -8.756775z" fill-rule="evenodd"/><path fill="#000000" d="m540.6335 224.41374l0 0c0 -4.836212 -3.9205322 -8.756744 -8.756775 -8.756744l0 0l0 0c-2.3224487 0 -4.5497437 0.9225769 -6.1919556 2.5647888c-1.6422119 1.6422119 -2.5647583 3.869522 -2.5647583 6.1919556l0 48.715775c0 4.836212 3.9205322 8.756744 8.756714 8.756744l0 0l0 0c4.8362427 0 8.756775 -3.9205322 8.756775 -8.756744z" fill-rule="evenodd"/><path fill="#000000" d="m512.4601 224.41374l0 0c0 -4.836212 -3.9205322 -8.756744 -8.756775 -8.756744l0 0l0 0c-2.3224182 0 -4.5497437 0.9225769 -6.1919556 2.5647888c-1.6422119 1.6422119 -2.5647888 3.869522 -2.5647888 6.1919556l0 48.715775c0 4.836212 3.9205322 8.756744 8.756744 8.756744l0 0l0 0c4.8362427 0 8.756775 -3.9205322 8.756775 -8.756744z" fill-rule="evenodd"/><path fill="#000000" d="m762.8437 223.46362l0 0c0 -4.8362274 -3.9205322 -8.75676 -8.756775 -8.75676l0 0l0 0c-2.3224487 0 -4.5497437 0.92259216 -6.1919556 2.5647888c-1.6422119 1.6422119 -2.5648193 3.869522 -2.5648193 6.191971l0 48.71576c0 4.836212 3.9205322 8.756744 8.756775 8.756744l0 0l0 0c4.8362427 0 8.756775 -3.9205322 8.756775 -8.756744z" fill-rule="evenodd"/></g></svg>