<?xml version="1.0" encoding="UTF-8" standalone="no"?>
<svg
   xmlns:dc="http://purl.org/dc/elements/1.1/"
   xmlns:cc="http://creativecommons.org/ns#"
   xmlns:rdf="http://www.w3.org/1999/02/22-rdf-syntax-ns#"
   xmlns:svg="http://www.w3.org/2000/svg"
   xmlns="http://www.w3.org/2000/svg"
   xmlns:sodipodi="http://sodipodi.sourceforge.net/DTD/sodipodi-0.dtd"
   xmlns:inkscape="http://www.inkscape.org/namespaces/inkscape"
   width="14px"
   height="14px"
   viewBox="0 0 14 14"
   version="1.1"
   id="svg14"
   sodipodi:docname="logout.svg"
   inkscape:version="0.92.4 (5da689c313, 2019-01-14)">
  <metadata
     id="metadata20">
    <rdf:RDF>
      <cc:Work
         rdf:about="">
        <dc:format>image/svg+xml</dc:format>
        <dc:type
           rdf:resource="http://purl.org/dc/dcmitype/StillImage" />
      </cc:Work>
    </rdf:RDF>
  </metadata>
  <defs
     id="defs18" />
  <sodipodi:namedview
     pagecolor="#ffffff"
     bordercolor="#666666"
     borderopacity="1"
     objecttolerance="10"
     gridtolerance="10"
     guidetolerance="10"
     inkscape:pageopacity="0"
     inkscape:pageshadow="2"
     inkscape:window-width="640"
     inkscape:window-height="480"
     id="namedview16"
     showgrid="false"
     inkscape:zoom="16.857143"
     inkscape:cx="7"
     inkscape:cy="7"
     inkscape:window-x="0"
     inkscape:window-y="27"
     inkscape:window-maximized="0"
     inkscape:current-layer="svg14" />
  <!-- Generator: Sketch 52.5 (67469) - http://www.bohemiancoding.com/sketch -->
  <title
     id="title2">clear</title>
  <desc
     id="desc4">Created with Sketch.</desc>
  <g
     id="Icons"
     stroke="none"
     stroke-width="1"
     fill="none"
     fill-rule="evenodd">
    <g
       id="Rounded"
       transform="translate(-615.000000, -1487.000000)">
      <g
         id="Content"
         transform="translate(100.000000, 1428.000000)">
        <g
           id="-Round-/-Content-/-clear"
           transform="translate(510.000000, 54.000000)">
          <g
             id="g8">
            <polygon
               id="Path"
               points="0 0 24 0 24 24 0 24" />
            <path
               d="M18.3,5.71 C17.91,5.32 17.28,5.32 16.89,5.71 L12,10.59 L7.11,5.7 C6.72,5.31 6.09,5.31 5.7,5.7 C5.31,6.09 5.31,6.72 5.7,7.11 L10.59,12 L5.7,16.89 C5.31,17.28 5.31,17.91 5.7,18.3 C6.09,18.69 6.72,18.69 7.11,18.3 L12,13.41 L16.89,18.3 C17.28,18.69 17.91,18.69 18.3,18.3 C18.69,17.91 18.69,17.28 18.3,16.89 L13.41,12 L18.3,7.11 C18.68,6.73 18.68,6.09 18.3,5.71 Z"
               id="🔹Icon-Color"
               fill="#1D1D1D"
               style="fill:#ffffff" />
          </g>
        </g>
      </g>
    </g>
  </g>
</svg>
