<svg version="1.1" viewBox="0.0 0.0 500.0 500.0" fill="none" stroke="none" stroke-linecap="square" stroke-miterlimit="10" xmlns:xlink="http://www.w3.org/1999/xlink" xmlns="http://www.w3.org/2000/svg"><clipPath id="p.0"><path d="m0 0l500.0 0l0 500.0l-500.0 0l0 -500.0z" clip-rule="nonzero"/></clipPath><g clip-path="url(#p.0)"><path fill="#000000" fill-opacity="0.0" d="m0 0l500.0 0l0 500.0l-500.0 0z" fill-rule="evenodd"/><path fill="#000000" fill-opacity="0.0" d="m175.80655 129.69029l-104.944885 0l104.944885 -115.05512z" fill-rule="evenodd"/><path stroke="#000000" stroke-width="16.0" stroke-linejoin="round" stroke-linecap="butt" d="m175.80655 129.69029l-104.944885 0l104.944885 -115.05512z" fill-rule="evenodd"/><path fill="#000000" fill-opacity="0.0" d="m429.74686 14.188976l-253.21104 0l-106.28501 106.285l0 365.33704l359.49606 0z" fill-rule="evenodd"/><path stroke="#000000" stroke-width="16.0" stroke-linejoin="round" stroke-linecap="butt" d="m429.74686 14.188976l-253.21104 0l-106.28501 106.285l0 365.33704l359.49606 0z" fill-rule="evenodd"/><path fill="#000000" d="m343.55597 298.82022l0 0c0 -4.8357544 3.920166 -8.75589 8.75592 -8.75589l0 0l0 0c2.3222046 0 4.549286 0.92248535 6.191345 2.5645447c1.6420593 1.6420288 2.5645447 3.8691406 2.5645447 6.191345l0 13.383087l0 0c0 4.835724 -3.920166 8.75589 -8.75589 8.75589l0 0l0 0c-4.8357544 0 -8.75592 -3.920166 -8.75592 -8.75589z" fill-rule="evenodd"/><path fill="#000000" d="m122.93034 303.5243l0 0c0 -4.8357544 3.9201508 -8.75592 8.755905 -8.75592l0 0l0 0c2.3222046 0 4.549301 0.92251587 6.1913605 2.5645447c1.6420441 1.6420593 2.5645447 3.8691711 2.5645447 6.1913757l0 4.967499c0 4.8357544 -3.9201508 8.75592 -8.755905 8.75592l0 0l0 0c-4.8357544 0 -8.755905 -3.920166 -8.755905 -8.75592z" fill-rule="evenodd"/><path fill="#000000" d="m263.80045 176.3978l0 0c0 -4.8357544 3.9201355 -8.755905 8.75589 -8.755905l0 0l0 0c2.3222046 0 4.5493164 0.9225006 6.1913757 2.5645447c1.6420288 1.6420441 2.5645447 3.869156 2.5645447 6.1913605l0 259.20377c0 4.8357544 -3.920166 8.75592 -8.75592 8.75592l0 0l0 0c-4.8357544 0 -8.75589 -3.920166 -8.75589 -8.75592z" fill-rule="evenodd"/><path fill="#000000" d="m207.45354 203.0059l0 0c0 -4.835739 3.9201508 -8.755905 8.755905 -8.755905l0 0l0 0c2.3222046 0 4.549301 0.9225006 6.1913605 2.5645447c1.6420441 1.6420593 2.5645447 3.869156 2.5645447 6.1913605l0 205.01299c0 4.8357544 -3.9201508 8.75589 -8.755905 8.75589l0 0l0 0c-4.8357544 0 -8.755905 -3.9201355 -8.755905 -8.75589z" fill-rule="evenodd"/><path fill="#000000" d="m235.62694 216.46236l0 0c0 -4.8357544 3.9201508 -8.755905 8.755905 -8.755905l0 0l0 0c2.3222046 0 4.5493164 0.9225006 6.1913605 2.5645447c1.6420441 1.6420593 2.5645447 3.869156 2.5645447 6.1913605l0 179.08577c0 4.8357544 -3.9201508 8.75592 -8.755905 8.75592l0 0l0 0c-4.8357544 0 -8.755905 -3.920166 -8.755905 -8.75592z" fill-rule="evenodd"/><path fill="#000000" d="m290.38467 203.49724l0 0c0 -4.8357544 3.920166 -8.75592 8.75592 -8.75592l0 0l0 0c2.3222046 0 4.5493164 0.9225006 6.191345 2.56456c1.6420593 1.6420441 2.5645447 3.8691406 2.5645447 6.1913605l0 205.01295c0 4.8357544 -3.9201355 8.75592 -8.75589 8.75592l0 0l0 0c-4.8357544 0 -8.75592 -3.920166 -8.75592 -8.75592z" fill-rule="evenodd"/><path fill="#000000" d="m196.79346 281.52246l0 0c0 -4.8357544 -3.920166 -8.75589 -8.755905 -8.75589l0 0l0 0c-2.3222198 0 -4.5493164 0.92248535 -6.1913605 2.5645447c-1.6420593 1.6420288 -2.5645447 3.8691406 -2.5645447 6.191345l0 48.97342c0 4.8357544 3.9201508 8.75592 8.755905 8.75592l0 0l0 0c4.835739 0 8.755905 -3.920166 8.755905 -8.75592z" fill-rule="evenodd"/><path fill="#000000" d="m168.61987 290.4248l0 0c0 -4.835724 -3.9201508 -8.75589 -8.755905 -8.75589l0 0l0 0c-2.3222198 0 -4.5493164 0.92248535 -6.1913605 2.5645447c-1.6420593 1.6420593 -2.5645447 3.8691406 -2.5645447 6.191345l0 30.191528c0 4.8357544 3.9201508 8.75592 8.755905 8.75592l0 0l0 0c4.8357544 0 8.755905 -3.920166 8.755905 -8.75592z" fill-rule="evenodd"/><path fill="#000000" d="m334.48248 290.41727l0 0c0 -4.8357544 -3.920166 -8.75592 -8.75592 -8.75592l0 0l0 0c-2.3222046 0 -4.5493164 0.92251587 -6.191345 2.5645447c-1.6420593 1.6420593 -2.5645447 3.8691711 -2.5645447 6.1913757l0 30.191498c0 4.8357544 3.9201355 8.75592 8.75589 8.75592l0 0l0 0c4.8357544 0 8.75592 -3.920166 8.75592 -8.75592z" fill-rule="evenodd"/></g></svg>