<svg version="1.1" viewBox="0.0 0.0 500.0 500.0" fill="none" stroke="none" stroke-linecap="square" stroke-miterlimit="10" xmlns:xlink="http://www.w3.org/1999/xlink" xmlns="http://www.w3.org/2000/svg"><clipPath id="p.0"><path d="m0 0l500.0 0l0 500.0l-500.0 0l0 -500.0z" clip-rule="nonzero"/></clipPath><g clip-path="url(#p.0)"><path fill="#000000" fill-opacity="0.0" d="m0 0l500.0 0l0 500.0l-500.0 0z" fill-rule="evenodd"/><path fill="#000000" fill-opacity="0.0" d="m30.110237 250.0l0 0c0 -121.44176 98.448006 -219.88977 219.88977 -219.88977l0 0c58.31839 0 114.2482 23.16689 155.48553 64.40422c41.237335 41.237328 64.404236 97.16715 64.404236 155.48553l0 0c0 121.44177 -98.448 219.88977 -219.88977 219.88977l0 0c-121.44176 0 -219.88977 -98.448 -219.88977 -219.88977z" fill-rule="evenodd"/><path stroke="#ffffff" stroke-width="16.0" stroke-linejoin="round" stroke-linecap="butt" d="m30.110237 250.0l0 0c0 -121.44176 98.448006 -219.88977 219.88977 -219.88977l0 0c58.31839 0 114.2482 23.16689 155.48553 64.40422c41.237335 41.237328 64.404236 97.16715 64.404236 155.48553l0 0c0 121.44177 -98.448 219.88977 -219.88977 219.88977l0 0c-121.44176 0 -219.88977 -98.448 -219.88977 -219.88977z" fill-rule="evenodd"/><path fill="#000000" fill-opacity="0.0" d="m112.3937 195.25543l146.11023 0l0 -74.357796l129.10236 129.10236l-129.10236 129.10236l0 -74.35779l-146.11023 0z" fill-rule="evenodd"/><path stroke="#ffffff" stroke-width="16.0" stroke-linejoin="round" stroke-linecap="butt" d="m112.3937 195.25543l146.11023 0l0 -74.357796l129.10236 129.10236l-129.10236 129.10236l0 -74.35779l-146.11023 0z" fill-rule="evenodd"/></g></svg>