<svg version="1.1" viewBox="0.0 0.0 500.0 500.0" fill="none" stroke="none" stroke-linecap="square" stroke-miterlimit="10" xmlns:xlink="http://www.w3.org/1999/xlink" xmlns="http://www.w3.org/2000/svg"><clipPath id="p.0"><path d="m0 0l500.0 0l0 500.0l-500.0 0l0 -500.0z" clip-rule="nonzero"/></clipPath><g clip-path="url(#p.0)"><path fill="#000000" fill-opacity="0.0" d="m0 0l500.0 0l0 500.0l-500.0 0z" fill-rule="evenodd"/><path fill="#000000" fill-opacity="0.0" d="m16.283464 92.41364l0 0c0 -43.412476 35.192764 -78.60524 78.60525 -78.60524l314.41156 0l0 0c20.847412 0 40.840973 8.281601 55.582306 23.022942c14.741333 14.741344 23.02295 34.734898 23.02295 55.582302l0 314.41156c0 43.412476 -35.19278 78.605255 -78.605255 78.605255l-314.41156 0c-43.41248 0 -78.60525 -35.19278 -78.60525 -78.605255z" fill-rule="evenodd"/><path stroke="#000000" stroke-width="16.0" stroke-linejoin="round" stroke-linecap="butt" d="m16.283464 92.41364l0 0c0 -43.412476 35.192764 -78.60524 78.60525 -78.60524l314.41156 0l0 0c20.847412 0 40.840973 8.281601 55.582306 23.022942c14.741333 14.741344 23.02295 34.734898 23.02295 55.582302l0 314.41156c0 43.412476 -35.19278 78.605255 -78.605255 78.605255l-314.41156 0c-43.41248 0 -78.60525 -35.19278 -78.60525 -78.605255z" fill-rule="evenodd"/><path fill="#000000" fill-opacity="0.0" d="m65.59299 392.7768l0 0c0 -21.879272 17.736671 -39.615936 39.61596 -39.615936l0 0c10.506805 0 20.583282 4.1737976 28.012718 11.603241c7.429428 7.429413 11.603241 17.50589 11.603241 28.012695l0 0c0 21.879303 -17.736664 39.615967 -39.61596 39.615967l0 0c-21.879288 0 -39.61596 -17.736664 -39.61596 -39.615967z" fill-rule="evenodd"/><path stroke="#000000" stroke-width="16.0" stroke-linejoin="round" stroke-linecap="butt" d="m65.59299 392.7768l0 0c0 -21.879272 17.736671 -39.615936 39.61596 -39.615936l0 0c10.506805 0 20.583282 4.1737976 28.012718 11.603241c7.429428 7.429413 11.603241 17.50589 11.603241 28.012695l0 0c0 21.879303 -17.736664 39.615967 -39.61596 39.615967l0 0c-21.879288 0 -39.61596 -17.736664 -39.61596 -39.615967z" fill-rule="evenodd"/><path fill="#000000" fill-opacity="0.0" d="m292.7453 394.2841l0 0c0 20.92035 -16.864868 37.92932 -37.784454 38.1073c-20.919586 0.17797852 -38.071426 -16.541595 -38.427353 -37.458923l38.10315 -0.64837646z" fill-rule="evenodd"/><path fill="#000000" fill-opacity="0.0" d="m292.7453 394.2841l0 0c0 20.92035 -16.864868 37.92932 -37.784454 38.1073c-20.919586 0.17797852 -38.071426 -16.541595 -38.427353 -37.458923" fill-rule="evenodd"/><path stroke="#000000" stroke-width="16.0" stroke-linejoin="round" stroke-linecap="butt" d="m292.7453 394.2841l0 0c0 20.92035 -16.864868 37.92932 -37.784454 38.1073c-20.919586 0.17797852 -38.071426 -16.541595 -38.427353 -37.458923" fill-rule="evenodd"/><path fill="#000000" fill-opacity="0.0" d="m440.6657 394.2841l0 0c0 20.92035 -16.864899 37.92932 -37.784485 38.1073c-20.919556 0.17797852 -38.07141 -16.541595 -38.427338 -37.458923l38.10315 -0.64837646z" fill-rule="evenodd"/><path fill="#000000" fill-opacity="0.0" d="m440.6657 394.2841l0 0c0 20.92035 -16.864899 37.92932 -37.784485 38.1073c-20.919556 0.17797852 -38.07141 -16.541595 -38.427338 -37.458923" fill-rule="evenodd"/><path stroke="#000000" stroke-width="16.0" stroke-linejoin="round" stroke-linecap="butt" d="m440.6657 394.2841l0 0c0 20.92035 -16.864899 37.92932 -37.784485 38.1073c-20.919556 0.17797852 -38.07141 -16.541595 -38.427338 -37.458923" fill-rule="evenodd"/><path fill="#000000" fill-opacity="0.0" d="m105.20768 138.96135l0 0c-20.920341 0 -37.929314 -16.864883 -38.107292 -37.784462c-0.17797089 -20.919579 16.54161 -38.071415 37.458916 -38.42735l0.64837646 38.103153z" fill-rule="evenodd"/><path fill="#000000" fill-opacity="0.0" d="m105.20768 138.96135l0 0c-20.920341 0 -37.929314 -16.864883 -38.107292 -37.784462c-0.17797089 -20.919579 16.54161 -38.071415 37.458916 -38.42735" fill-rule="evenodd"/><path stroke="#000000" stroke-width="16.0" stroke-linejoin="round" stroke-linecap="butt" d="m105.20768 138.96135l0 0c-20.920341 0 -37.929314 -16.864883 -38.107292 -37.784462c-0.17797089 -20.919579 16.54161 -38.071415 37.458916 -38.42735" fill-rule="evenodd"/><path fill="#000000" fill-opacity="0.0" d="m105.20768 284.16913l0 0c-20.920341 0 -37.929314 -16.864868 -38.107292 -37.78447c-0.17797089 -20.91957 16.54161 -38.07141 37.458916 -38.427338l0.64837646 38.10315z" fill-rule="evenodd"/><path fill="#000000" fill-opacity="0.0" d="m105.20768 284.16913l0 0c-20.920341 0 -37.929314 -16.864868 -38.107292 -37.78447c-0.17797089 -20.91957 16.54161 -38.07141 37.458916 -38.427338" fill-rule="evenodd"/><path stroke="#000000" stroke-width="16.0" stroke-linejoin="round" stroke-linecap="butt" d="m105.20768 284.16913l0 0c-20.920341 0 -37.929314 -16.864868 -38.107292 -37.78447c-0.17797089 -20.91957 16.54161 -38.07141 37.458916 -38.427338" fill-rule="evenodd"/><path fill="#000000" fill-opacity="0.0" d="m101.64625 62.742752l0 0c89.917595 0 176.1524 34.96089 239.73373 97.19168c63.58133 62.23079 99.300964 146.63387 99.300964 234.6415l-339.0347 0z" fill-rule="evenodd"/><path fill="#000000" fill-opacity="0.0" d="m101.64625 62.742752l0 0c89.917595 0 176.1524 34.96089 239.73373 97.19168c63.58133 62.23079 99.300964 146.63387 99.300964 234.6415" fill-rule="evenodd"/><path stroke="#000000" stroke-width="16.0" stroke-linejoin="round" stroke-linecap="butt" d="m101.64625 62.742752l0 0c89.917595 0 176.1524 34.96089 239.73373 97.19168c63.58133 62.23079 99.300964 146.63387 99.300964 234.6415" fill-rule="evenodd"/><path fill="#000000" fill-opacity="0.0" d="m104.067055 138.96263l0 0c69.05338 0 135.2785 27.078445 184.10663 75.2784c48.828125 48.19995 76.25946 113.57312 76.25946 181.73816l-260.3661 0z" fill-rule="evenodd"/><path fill="#000000" fill-opacity="0.0" d="m104.067055 138.96263l0 0c69.05338 0 135.2785 27.078445 184.10663 75.2784c48.828125 48.19995 76.25946 113.57312 76.25946 181.73816" fill-rule="evenodd"/><path stroke="#000000" stroke-width="16.0" stroke-linejoin="round" stroke-linecap="butt" d="m104.067055 138.96263l0 0c69.05338 0 135.2785 27.078445 184.10663 75.2784c48.828125 48.19995 76.25946 113.57312 76.25946 181.73816" fill-rule="evenodd"/><path fill="#000000" fill-opacity="0.0" d="m104.45276 207.95306l0 0c49.937622 0 97.829926 19.71733 133.14114 54.814423c35.31122 35.097076 55.148865 82.698944 55.148865 132.33371l-188.29001 0z" fill-rule="evenodd"/><path fill="#000000" fill-opacity="0.0" d="m104.45276 207.95306l0 0c49.937622 0 97.829926 19.71733 133.14114 54.814423c35.31122 35.097076 55.148865 82.698944 55.148865 132.33371" fill-rule="evenodd"/><path stroke="#000000" stroke-width="16.0" stroke-linejoin="round" stroke-linecap="butt" d="m104.45276 207.95306l0 0c49.937622 0 97.829926 19.71733 133.14114 54.814423c35.31122 35.097076 55.148865 82.698944 55.148865 132.33371" fill-rule="evenodd"/><path fill="#000000" fill-opacity="0.0" d="m100.16941 284.1704l0 0c30.858192 0 60.452507 11.814026 82.272545 32.84317c21.820038 21.029114 34.0784 49.55072 34.0784 79.290405l-116.350945 0z" fill-rule="evenodd"/><path fill="#000000" fill-opacity="0.0" d="m100.16941 284.1704l0 0c30.858192 0 60.452507 11.814026 82.272545 32.84317c21.820038 21.029114 34.0784 49.55072 34.0784 79.290405" fill-rule="evenodd"/><path stroke="#000000" stroke-width="16.0" stroke-linejoin="round" stroke-linecap="butt" d="m100.16941 284.1704l0 0c30.858192 0 60.452507 11.814026 82.272545 32.84317c21.820038 21.029114 34.0784 49.55072 34.0784 79.290405" fill-rule="evenodd"/></g></svg>