<svg version="1.1" viewBox="0.0 0.0 1000.0 500.0" fill="none" stroke="none" stroke-linecap="square" stroke-miterlimit="10" xmlns:xlink="http://www.w3.org/1999/xlink" xmlns="http://www.w3.org/2000/svg"><clipPath id="p.0"><path d="m0 0l1000.0 0l0 500.0l-1000.0 0l0 -500.0z" clip-rule="nonzero"/></clipPath><g clip-path="url(#p.0)"><path fill="#000000" fill-opacity="0.0" d="m0 0l1000.0 0l0 500.0l-1000.0 0z" fill-rule="evenodd"/><path fill="#000000" d="m308.35272 62.320087l435.33856 0l-0.9359741 0.9021187l-434.197 0l0 418.49026l-0.20559692 0.19818115z" fill-rule="evenodd"/><path stroke="#000000" stroke-width="16.0" stroke-linejoin="round" stroke-linecap="butt" d="m308.35272 62.320087l435.33856 0l-0.9359741 0.9021187l-434.197 0l0 418.49026l-0.20559692 0.19818115z" fill-rule="evenodd"/><path fill="#000000" d="m691.6473 437.67993l-435.33856 0l0.9359741 -0.9020996l434.19702 0l0 -418.49026l0.2055664 -0.19816208z" fill-rule="evenodd"/><path stroke="#000000" stroke-width="16.0" stroke-linejoin="round" stroke-linecap="butt" d="m691.6473 437.67993l-435.33856 0l0.9359741 -0.9020996l434.19702 0l0 -418.49026l0.2055664 -0.19816208z" fill-rule="evenodd"/><path fill="#000000" fill-opacity="0.0" d="m438.9322 179.39197l122.13385 70.60892l-122.13385 70.60892z" fill-rule="evenodd"/><path stroke="#000000" stroke-width="24.0" stroke-linejoin="round" stroke-linecap="butt" d="m438.9322 179.39197l122.13385 70.60892l-122.13385 70.60892z" fill-rule="evenodd"/></g></svg>