<svg version="1.1" viewBox="0.0 0.0 500.0 500.0" fill="none" stroke="none" stroke-linecap="square" stroke-miterlimit="10" xmlns:xlink="http://www.w3.org/1999/xlink" xmlns="http://www.w3.org/2000/svg"><clipPath id="p.0"><path d="m0 0l500.0 0l0 500.0l-500.0 0l0 -500.0z" clip-rule="nonzero"/></clipPath><g clip-path="url(#p.0)"><path fill="#000000" fill-opacity="0.0" d="m0 0l500.0 0l0 500.0l-500.0 0z" fill-rule="evenodd"/><path fill="#000000" fill-opacity="0.0" d="m30.028872 393.49606l0 0c0 -26.414001 21.412775 -47.826782 47.826775 -47.826782l345.70078 0c12.684448 0 24.849365 5.0388794 33.818634 14.008148c8.969269 8.969269 14.008148 21.134186 14.008148 33.818634l0 0l0 0c0 26.414001 -21.41278 47.826782 -47.826782 47.826782l-345.70078 0c-26.413998 0 -47.826775 -21.41278 -47.826775 -47.826782z" fill-rule="evenodd"/><path stroke="#000000" stroke-width="16.0" stroke-linejoin="round" stroke-linecap="butt" d="m30.028872 393.49606l0 0c0 -26.414001 21.412775 -47.826782 47.826775 -47.826782l345.70078 0c12.684448 0 24.849365 5.0388794 33.818634 14.008148c8.969269 8.969269 14.008148 21.134186 14.008148 33.818634l0 0l0 0c0 26.414001 -21.41278 47.826782 -47.826782 47.826782l-345.70078 0c-26.413998 0 -47.826775 -21.41278 -47.826775 -47.826782z" fill-rule="evenodd"/><path fill="#000000" fill-opacity="0.0" d="m45.574802 393.29135l408.8504 0.40942383" fill-rule="evenodd"/><path stroke="#000000" stroke-width="16.0" stroke-linejoin="round" stroke-linecap="butt" stroke-dasharray="64.0,48.0,16.0,48.0" d="m45.574802 393.29135l408.8504 0.40942383" fill-rule="evenodd"/><path fill="#000000" fill-opacity="0.0" d="m62.850395 83.7979l56.566925 0l0 261.85828l-56.566925 0z" fill-rule="evenodd"/><path stroke="#000000" stroke-width="16.0" stroke-linejoin="round" stroke-linecap="butt" d="m62.850395 83.7979l56.566925 0l0 261.85828l-56.566925 0z" fill-rule="evenodd"/><path fill="#000000" fill-opacity="0.0" d="m200.41733 83.79002l0 0c0 -18.508057 15.003738 -33.51181 33.51181 -33.51181l0 0c8.887878 0 17.411743 3.5307007 23.696411 9.815384c6.2846985 6.284683 9.815399 14.80854 9.815399 23.696426l0 0c0 18.508064 -15.003754 33.51181 -33.51181 33.51181l0 0c-18.508072 0 -33.51181 -15.003746 -33.51181 -33.51181z" fill-rule="evenodd"/><path stroke="#000000" stroke-width="16.0" stroke-linejoin="round" stroke-linecap="butt" d="m200.41733 83.79002l0 0c0 -18.508057 15.003738 -33.51181 33.51181 -33.51181l0 0c8.887878 0 17.411743 3.5307007 23.696411 9.815384c6.2846985 6.284683 9.815399 14.80854 9.815399 23.696426l0 0c0 18.508064 -15.003754 33.51181 -33.51181 33.51181l0 0c-18.508072 0 -33.51181 -15.003746 -33.51181 -33.51181z" fill-rule="evenodd"/><path fill="#000000" fill-opacity="0.0" d="m91.13386 83.7979l109.29134 0" fill-rule="evenodd"/><path stroke="#000000" stroke-width="16.0" stroke-linejoin="round" stroke-linecap="butt" d="m91.13386 83.7979l109.29134 0" fill-rule="evenodd"/><path fill="#000000" fill-opacity="0.0" d="m190.70079 265.0555l0 0c0 -44.75682 19.353989 -81.03938 43.228348 -81.03938c23.87436 0 43.228333 36.282562 43.228333 81.03938l0 0c-8.059814 -30.986115 -24.839218 -50.64395 -43.228333 -50.64395c-18.389114 0 -35.168533 19.657837 -43.228348 50.64395z" fill-rule="evenodd"/><path stroke="#000000" stroke-width="16.0" stroke-linejoin="round" stroke-linecap="butt" d="m190.70079 265.0555l0 0c0 -44.75682 19.353989 -81.03938 43.228348 -81.03938c23.87436 0 43.228333 36.282562 43.228333 81.03938l0 0c-8.059814 -30.986115 -24.839218 -50.64395 -43.228333 -50.64395c-18.389114 0 -35.168533 19.657837 -43.228348 50.64395z" fill-rule="evenodd"/><path fill="#000000" fill-opacity="0.0" d="m233.92914 214.41156l0 -97.102356" fill-rule="evenodd"/><path stroke="#000000" stroke-width="16.0" stroke-linejoin="round" stroke-linecap="butt" d="m233.92914 214.41156l0 -97.102356" fill-rule="evenodd"/><path fill="#000000" fill-opacity="0.0" d="m205.64568 295.0735l56.56691 0l0 50.582672l-56.56691 0z" fill-rule="evenodd"/><path stroke="#000000" stroke-width="16.0" stroke-linejoin="round" stroke-linecap="butt" d="m205.64568 295.0735l56.56691 0l0 50.582672l-56.56691 0z" fill-rule="evenodd"/><path fill="#000000" fill-opacity="0.0" d="m337.56693 295.0735l56.566925 0l0 50.582672l-56.566925 0z" fill-rule="evenodd"/><path stroke="#000000" stroke-width="16.0" stroke-linejoin="round" stroke-linecap="butt" d="m337.56693 295.0735l56.566925 0l0 50.582672l-56.566925 0z" fill-rule="evenodd"/></g></svg>