<svg version="1.1" viewBox="0.0 0.0 1000.0 500.0" fill="none" stroke="none" stroke-linecap="square" stroke-miterlimit="10" xmlns:xlink="http://www.w3.org/1999/xlink" xmlns="http://www.w3.org/2000/svg"><clipPath id="p.0"><path d="m0 0l1000.0 0l0 500.0l-1000.0 0l0 -500.0z" clip-rule="nonzero"/></clipPath><g clip-path="url(#p.0)"><path fill="#000000" fill-opacity="0.0" d="m0 0l1000.0 0l0 500.0l-1000.0 0z" fill-rule="evenodd"/><path fill="#000000" fill-opacity="0.0" d="m138.89896 46.88189l722.2047 0l0 406.2362l-722.2047 0z" fill-rule="evenodd"/><path stroke="#000000" stroke-width="16.0" stroke-linejoin="round" stroke-linecap="butt" d="m138.89896 46.88189l722.2047 0l0 406.2362l-722.2047 0z" fill-rule="evenodd"/><path fill="#000000" d="m178.8987 86.8809l135.49608 0l-0.2913208 0.2913208l-135.13835 0l0 135.13837l-0.06640625 0.06639099z" fill-rule="evenodd"/><path stroke="#000000" stroke-width="16.0" stroke-linejoin="round" stroke-linecap="butt" d="m178.8987 86.8809l135.49608 0l-0.2913208 0.2913208l-135.13835 0l0 135.13837l-0.06640625 0.06639099z" fill-rule="evenodd"/><path fill="#000000" d="m821.10345 413.11713l-135.4961 0l0.2913208 -0.2913208l135.13837 0l0 -135.13837l0.06640625 -0.06637573z" fill-rule="evenodd"/><path stroke="#000000" stroke-width="16.0" stroke-linejoin="round" stroke-linecap="butt" d="m821.10345 413.11713l-135.4961 0l0.2913208 -0.2913208l135.13837 0l0 -135.13837l0.06640625 -0.06637573z" fill-rule="evenodd"/><path fill="#000000" fill-opacity="0.0" d="m438.9335 183.1505l122.13388 70.60892l-122.13388 70.60893z" fill-rule="evenodd"/><path stroke="#000000" stroke-width="24.0" stroke-linejoin="round" stroke-linecap="butt" d="m438.9335 183.1505l122.13388 70.60892l-122.13388 70.60893z" fill-rule="evenodd"/></g></svg>