<?xml version="1.0" encoding="UTF-8" standalone="no"?>
<svg
   xmlns:dc="http://purl.org/dc/elements/1.1/"
   xmlns:cc="http://creativecommons.org/ns#"
   xmlns:rdf="http://www.w3.org/1999/02/22-rdf-syntax-ns#"
   xmlns:svg="http://www.w3.org/2000/svg"
   xmlns="http://www.w3.org/2000/svg"
   xmlns:sodipodi="http://sodipodi.sourceforge.net/DTD/sodipodi-0.dtd"
   xmlns:inkscape="http://www.inkscape.org/namespaces/inkscape"
   viewBox="0 0 48 34"
   version="1.1"
   id="svg11"
   sodipodi:docname="21260486821530103330.svg"
   inkscape:version="0.92.4 (5da689c313, 2019-01-14)">
  <metadata
     id="metadata15">
    <rdf:RDF>
      <cc:Work
         rdf:about="">
        <dc:format>image/svg+xml</dc:format>
        <dc:type
           rdf:resource="http://purl.org/dc/dcmitype/StillImage" />
      </cc:Work>
    </rdf:RDF>
  </metadata>
  <sodipodi:namedview
     pagecolor="#ffffff"
     bordercolor="#666666"
     borderopacity="1"
     objecttolerance="10"
     gridtolerance="10"
     guidetolerance="10"
     inkscape:pageopacity="0"
     inkscape:pageshadow="2"
     inkscape:window-width="1395"
     inkscape:window-height="1132"
     id="namedview13"
     showgrid="false"
     inkscape:zoom="6.9411765"
     inkscape:cx="24.432203"
     inkscape:cy="17"
     inkscape:window-x="602"
     inkscape:window-y="341"
     inkscape:window-maximized="0"
     inkscape:current-layer="svg11" />
  <!-- Generator: Sketch 49.2 (51160) - http://www.bohemiancoding.com/sketch -->
  <title
     id="title2">Youtube</title>
  <desc
     id="desc4">Created with Sketch.</desc>
  <defs
     id="defs6" />
  <g
     id="Page-1"
     stroke="none"
     stroke-width="1"
     fill="none"
     fill-rule="evenodd">
    <g
       id="Social-Icons---Isolated"
       transform="translate(-164.000000, -510.000000)"
       fill="#FF0002"
       style="fill:#ffffff">
      <path
         d="M183.044,533.269916 L183.0425,519.687742 L196.0115,526.502244 L183.044,533.269916 Z M211.52,517.334163 C211.52,517.334163 211.0505,514.003199 209.612,512.536366 C207.7865,510.610299 205.7405,510.601235 204.803,510.489448 C198.086,510 188.0105,510 188.0105,510 L187.9895,510 C187.9895,510 177.914,510 171.197,510.489448 C170.258,510.601235 168.2135,510.610299 166.3865,512.536366 C164.948,514.003199 164.48,517.334163 164.48,517.334163 C164.48,517.334163 164,521.246723 164,525.157773 L164,528.82561 C164,532.73817 164.48,536.64922 164.48,536.64922 C164.48,536.64922 164.948,539.980184 166.3865,541.447016 C168.2135,543.373084 170.612,543.312658 171.68,543.513574 C175.52,543.885191 188,544 188,544 C188,544 198.086,543.984894 204.803,543.495446 C205.7405,543.382148 207.7865,543.373084 209.612,541.447016 C211.0505,539.980184 211.52,536.64922 211.52,536.64922 C211.52,536.64922 212,532.73817 212,528.82561 L212,525.157773 C212,521.246723 211.52,517.334163 211.52,517.334163 L211.52,517.334163 Z"
         id="Youtube"
         style="fill:#ffffff" />
    </g>
  </g>
</svg>
